<svg width="325" height="261" viewBox="0 0 325 261" fill="none" xmlns="http://www.w3.org/2000/svg">
<path d="M127.532 54.1512L128.718 54.4551C128.183 54.5356 127.648 54.6125 127.113 54.682H107.335C105.852 54.4843 104.377 54.2403 102.91 53.9498C94.075 52.2444 85.6431 48.7484 78.0888 43.6581C73.447 40.4985 69.022 36.6139 66.619 31.3967C63.3554 24.3122 64.4956 15.3422 69.155 9.17308C70.8514 6.94728 72.9401 5.08295 75.3079 3.68125C75.6611 3.4689 76.0179 3.26753 76.3817 3.07715C80.3259 1.0026 84.7553 0.153896 89.1459 0.631453C96.614 1.48452 103.505 6.25875 107.482 12.9295C111.879 20.2959 112.722 29.3098 113.457 37.9613C114.789 33.4726 119.791 30.7303 124.181 31.7225C128.568 32.7111 131.954 36.9984 132.5 41.6628C133.035 46.2246 131.055 50.9073 127.756 53.9498C127.683 54.0157 127.609 54.0853 127.532 54.1512Z" fill="#F2F2F2"/>
<path d="M112.281 54.6821H111.291C111.193 54.6003 111.117 54.493 111.071 54.3709C111.015 54.2318 110.962 54.089 110.903 53.9499C107.961 46.4912 104.339 39.3468 100.087 32.616C93.3305 21.9019 85.0538 12.3278 75.542 4.2232C75.4606 4.16263 75.3961 4.08057 75.3549 3.98538C75.3138 3.89019 75.2974 3.78528 75.3076 3.68134C75.3277 3.54263 75.3823 3.4119 75.466 3.30236C75.5498 3.19282 75.6597 3.10835 75.7846 3.05747C75.9095 3.00658 76.045 2.9911 76.1774 3.01257C76.3099 3.03404 76.4346 3.09171 76.5389 3.17975C82.7019 8.43328 88.3552 14.3099 93.4166 20.7243C98.4809 27.1309 102.94 34.0366 106.73 41.3443C108.845 45.4346 110.745 49.6428 112.421 53.9499C112.424 53.9609 112.428 53.9682 112.431 53.9792C112.488 54.0966 112.503 54.2306 112.476 54.3586C112.448 54.4867 112.38 54.601 112.281 54.6821Z" fill="white"/>
<path d="M195.186 53.9498H6.64613C4.88396 53.9515 3.19441 54.6849 1.94837 55.9891C0.702323 57.2933 0.00159492 59.0617 0 60.9061V82.1412C0.00159492 83.9856 0.702323 85.754 1.94837 87.0582C3.19441 88.3624 4.88396 89.0959 6.64613 89.0975H195.186C196.949 89.0959 198.638 88.3624 199.884 87.0582C201.13 85.754 201.831 83.9856 201.833 82.1412V60.9061C201.831 59.0617 201.13 57.2933 199.884 55.9891C198.638 54.6849 196.949 53.9515 195.186 53.9498ZM201.133 82.1412C201.131 83.7912 200.503 85.373 199.389 86.5397C198.274 87.7065 196.763 88.363 195.186 88.3653H6.64613C5.0697 88.363 3.55847 87.7065 2.44376 86.5397C1.32905 85.373 0.701824 83.7912 0.699593 82.1412V60.9061C0.701823 59.2561 1.32905 57.6744 2.44376 56.5076C3.55847 55.3409 5.0697 54.6844 6.64613 54.6821H195.186C196.763 54.6844 198.274 55.3409 199.389 56.5076C200.503 57.6744 201.131 59.2561 201.133 60.9061V82.1412Z" fill="#3F3D56"/>
<path d="M195.186 139.256H6.64613C4.88408 139.254 3.19478 138.521 1.94882 137.216C0.702864 135.912 0.00200161 134.144 0 132.3V111.065C0.00200161 109.221 0.702864 107.452 1.94882 106.148C3.19478 104.844 4.88408 104.111 6.64613 104.109H195.186C196.948 104.111 198.638 104.844 199.884 106.148C201.13 107.452 201.83 109.221 201.833 111.065V132.3C201.83 134.144 201.13 135.912 199.884 137.216C198.638 138.521 196.948 139.254 195.186 139.256ZM6.64613 104.841C5.06955 104.843 3.55806 105.499 2.44325 106.666C1.32844 107.833 0.701359 109.415 0.699593 111.065V132.3C0.70136 133.95 1.32844 135.532 2.44325 136.699C3.55806 137.866 5.06955 138.522 6.64613 138.524H195.186C196.763 138.522 198.274 137.866 199.389 136.699C200.504 135.532 201.131 133.95 201.133 132.3V111.065C201.131 109.415 200.504 107.833 199.389 106.666C198.274 105.499 196.763 104.843 195.186 104.841H6.64613Z" fill="#3F3D56"/>
<path d="M195.186 189.415H6.64613C4.88408 189.413 3.19478 188.679 1.94882 187.375C0.702864 186.071 0.00200161 184.303 0 182.459V161.224C0.00200161 159.379 0.702864 157.611 1.94882 156.307C3.19478 155.003 4.88408 154.269 6.64613 154.267H195.186C196.948 154.269 198.638 155.003 199.884 156.307C201.13 157.611 201.83 159.379 201.833 161.224V182.459C201.83 184.303 201.13 186.071 199.884 187.375C198.638 188.679 196.948 189.413 195.186 189.415ZM6.64613 154.999C5.06955 155.001 3.55806 155.658 2.44325 156.824C1.32844 157.991 0.701359 159.573 0.699593 161.224V182.459C0.70136 184.109 1.32844 185.691 2.44325 186.858C3.55806 188.024 5.06955 188.681 6.64613 188.683H195.186C196.763 188.681 198.274 188.024 199.389 186.858C200.504 185.691 201.131 184.109 201.133 182.459V161.224C201.131 159.573 200.504 157.991 199.389 156.825C198.274 155.658 196.763 155.001 195.186 154.999H6.64613Z" fill="#3F3D56"/>
<path d="M37.719 83.4226H26.5255C24.9953 83.4208 23.5283 82.7838 22.4463 81.6513C21.3643 80.5187 20.7556 78.9832 20.7539 77.3816V65.6657C20.7556 64.0641 21.3643 62.5286 22.4463 61.3961C23.5283 60.2635 24.9953 59.6265 26.5255 59.6247H37.719C39.2492 59.6265 40.7163 60.2635 41.7983 61.3961C42.8803 62.5286 43.4889 64.0641 43.4907 65.6657V77.3816C43.4889 78.9832 42.8803 80.5187 41.7983 81.6513C40.7163 82.7838 39.2492 83.4208 37.719 83.4226Z" fill="#FFC003"/>
<path d="M178.105 81.409H54.627C53.8848 81.409 53.173 81.1004 52.6482 80.5511C52.1234 80.0018 51.8286 79.2568 51.8286 78.48C51.8286 77.7032 52.1234 76.9582 52.6482 76.4089C53.173 75.8596 53.8848 75.551 54.627 75.551H178.105C178.847 75.551 179.559 75.8596 180.084 76.4089C180.609 76.9582 180.903 77.7032 180.903 78.48C180.903 79.2568 180.609 80.0018 180.084 80.5511C179.559 81.1004 178.847 81.409 178.105 81.409Z" fill="#CCCCCC"/>
<path d="M137.879 68.9608H54.627C53.8848 68.9608 53.173 68.6522 52.6482 68.1029C52.1234 67.5536 51.8286 66.8086 51.8286 66.0318C51.8286 65.255 52.1234 64.51 52.6482 63.9607C53.173 63.4114 53.8848 63.1028 54.627 63.1028H137.879C138.621 63.1028 139.332 63.4114 139.857 63.9607C140.382 64.51 140.677 65.255 140.677 66.0318C140.677 66.8086 140.382 67.5536 139.857 68.1029C139.332 68.6522 138.621 68.9608 137.879 68.9608Z" fill="#CCCCCC"/>
<path d="M37.719 133.581H26.5255C24.9953 133.58 23.5283 132.942 22.4463 131.81C21.3643 130.677 20.7556 129.142 20.7539 127.54V115.824C20.7556 114.223 21.3643 112.687 22.4463 111.555C23.5283 110.422 24.9953 109.785 26.5255 109.783H37.719C39.2492 109.785 40.7163 110.422 41.7983 111.555C42.8803 112.687 43.4889 114.223 43.4907 115.824V127.54C43.4889 129.142 42.8803 130.677 41.7983 131.81C40.7163 132.942 39.2492 133.58 37.719 133.581Z" fill="#FFC003"/>
<path d="M178.105 131.568H54.627C53.8848 131.568 53.173 131.259 52.6482 130.71C52.1234 130.161 51.8286 129.416 51.8286 128.639C51.8286 127.862 52.1234 127.117 52.6482 126.568C53.173 126.018 53.8848 125.71 54.627 125.71H178.105C178.847 125.71 179.559 126.018 180.084 126.568C180.609 127.117 180.903 127.862 180.903 128.639C180.903 129.416 180.609 130.161 180.084 130.71C179.559 131.259 178.847 131.568 178.105 131.568Z" fill="#CCCCCC"/>
<path d="M137.879 119.12H54.627C53.8848 119.12 53.173 118.811 52.6482 118.262C52.1234 117.712 51.8286 116.967 51.8286 116.191C51.8286 115.414 52.1234 114.669 52.6482 114.119C53.173 113.57 53.8848 113.262 54.627 113.262H137.879C138.621 113.262 139.332 113.57 139.857 114.119C140.382 114.669 140.677 115.414 140.677 116.191C140.677 116.967 140.382 117.712 139.857 118.262C139.332 118.811 138.621 119.12 137.879 119.12Z" fill="#CCCCCC"/>
<path d="M37.719 183.74H26.5255C24.9953 183.738 23.5283 183.101 22.4463 181.969C21.3643 180.836 20.7556 179.301 20.7539 177.699V165.983C20.7556 164.382 21.3643 162.846 22.4463 161.714C23.5283 160.581 24.9953 159.944 26.5255 159.942H37.719C39.2492 159.944 40.7163 160.581 41.7983 161.714C42.8803 162.846 43.4889 164.382 43.4907 165.983V177.699C43.4889 179.301 42.8803 180.836 41.7983 181.969C40.7163 183.101 39.2492 183.738 37.719 183.74Z" fill="#FFC003"/>
<path d="M178.105 181.726H54.627C53.8848 181.726 53.173 181.418 52.6482 180.868C52.1234 180.319 51.8286 179.574 51.8286 178.797C51.8286 178.021 52.1234 177.276 52.6482 176.726C53.173 176.177 53.8848 175.868 54.627 175.868H178.105C178.847 175.868 179.559 176.177 180.084 176.726C180.609 177.276 180.903 178.021 180.903 178.797C180.903 179.574 180.609 180.319 180.084 180.868C179.559 181.418 178.847 181.726 178.105 181.726Z" fill="#CCCCCC"/>
<path d="M137.879 169.278H54.627C53.8848 169.278 53.173 168.97 52.6482 168.42C52.1234 167.871 51.8286 167.126 51.8286 166.349C51.8286 165.572 52.1234 164.827 52.6482 164.278C53.173 163.729 53.8848 163.42 54.627 163.42H137.879C138.621 163.42 139.332 163.729 139.857 164.278C140.382 164.827 140.677 165.572 140.677 166.349C140.677 167.126 140.382 167.871 139.857 168.42C139.332 168.97 138.621 169.278 137.879 169.278Z" fill="#CCCCCC"/>
<path d="M199.384 64.5673C203.827 64.5673 207.43 60.7972 207.43 56.1465C207.43 51.4958 203.827 47.7257 199.384 47.7257C194.941 47.7257 191.339 51.4958 191.339 56.1465C191.339 60.7972 194.941 64.5673 199.384 64.5673Z" fill="#3F3D56"/>
<path d="M202.532 59.6248C202.486 59.6248 202.44 59.6154 202.398 59.597C202.355 59.5786 202.317 59.5516 202.285 59.5175L195.988 52.9273C195.923 52.8587 195.886 52.7655 195.886 52.6685C195.886 52.5714 195.923 52.4782 195.988 52.4096C196.054 52.3409 196.143 52.3024 196.235 52.3024C196.328 52.3024 196.417 52.3409 196.483 52.4096L202.779 58.9998C202.828 59.051 202.861 59.1162 202.875 59.1872C202.888 59.2582 202.881 59.3318 202.855 59.3987C202.828 59.4656 202.784 59.5228 202.726 59.563C202.669 59.6033 202.601 59.6248 202.532 59.6248Z" fill="white"/>
<path d="M196.235 59.6248C196.166 59.6247 196.099 59.6033 196.041 59.563C195.984 59.5228 195.939 59.4656 195.912 59.3987C195.886 59.3318 195.879 59.2582 195.892 59.1872C195.906 59.1162 195.939 59.051 195.988 58.9998L202.285 52.4096C202.317 52.3756 202.356 52.3486 202.398 52.3302C202.44 52.3118 202.486 52.3024 202.532 52.3024C202.578 52.3024 202.623 52.3118 202.666 52.3302C202.708 52.3486 202.747 52.3756 202.779 52.4096C202.812 52.4436 202.837 52.4839 202.855 52.5284C202.873 52.5728 202.882 52.6204 202.882 52.6685C202.882 52.7165 202.873 52.7641 202.855 52.8085C202.837 52.853 202.812 52.8933 202.779 52.9273L196.483 59.5175C196.45 59.5516 196.412 59.5786 196.369 59.597C196.327 59.6154 196.281 59.6248 196.235 59.6248Z" fill="white"/>
<path d="M280.366 155.91C290.705 155.91 299.087 147.137 299.087 136.315C299.087 125.494 290.705 116.721 280.366 116.721C270.027 116.721 261.645 125.494 261.645 136.315C261.645 147.137 270.027 155.91 280.366 155.91Z" fill="#FFC003"/>
<path d="M281.74 257.445V212.407C281.741 211.776 281.981 211.171 282.407 210.725C282.833 210.279 283.411 210.028 284.014 210.027H289.177C289.779 210.028 290.357 210.279 290.784 210.725C291.21 211.171 291.45 211.776 291.45 212.407V257.445C291.45 258.076 291.21 258.681 290.784 259.127C290.357 259.574 289.779 259.825 289.177 259.825H284.014C283.411 259.825 282.833 259.574 282.407 259.127C281.981 258.681 281.741 258.076 281.74 257.445Z" fill="#2F2E41"/>
<path d="M270.83 257.445V212.407C270.831 211.776 271.071 211.171 271.497 210.725C271.923 210.279 272.501 210.028 273.104 210.027H278.267C278.869 210.028 279.447 210.279 279.874 210.725C280.3 211.171 280.54 211.776 280.54 212.407V257.445C280.54 258.076 280.3 258.681 279.874 259.127C279.447 259.574 278.869 259.825 278.267 259.825H273.104C272.501 259.825 271.923 259.574 271.497 259.127C271.071 258.681 270.831 258.076 270.83 257.445Z" fill="#2F2E41"/>
<path d="M292.307 217.702H268.848C268.199 217.701 267.577 217.431 267.118 216.95C266.659 216.47 266.401 215.818 266.4 215.139V175.252C266.4 171.316 267.894 167.542 270.552 164.759C273.211 161.976 276.817 160.413 280.578 160.413C284.338 160.413 287.944 161.976 290.603 164.759C293.262 167.542 294.755 171.316 294.755 175.252V215.139C294.754 215.818 294.496 216.47 294.037 216.95C293.578 217.431 292.956 217.701 292.307 217.702Z" fill="#2F2E41"/>
<path d="M264.556 144.977L264.576 144.245C263.274 144.207 262.127 144.122 261.264 143.462C261.02 143.265 260.819 143.015 260.675 142.728C260.532 142.442 260.448 142.127 260.432 141.805C260.416 141.607 260.445 141.409 260.515 141.225C260.585 141.041 260.694 140.877 260.835 140.745C261.407 140.239 262.328 140.403 262.999 140.725L263.578 141.003L262.468 132.512L261.775 132.611L262.719 139.834C261.807 139.553 260.962 139.674 260.383 140.186C260.161 140.389 259.987 140.643 259.874 140.928C259.761 141.213 259.712 141.522 259.732 141.83C259.753 142.264 259.864 142.688 260.057 143.072C260.25 143.456 260.522 143.791 260.852 144.054C261.96 144.901 263.399 144.943 264.556 144.977Z" fill="#2F2E41"/>
<path d="M270.24 133.234H266.473V133.966H270.24V133.234Z" fill="#2F2E41"/>
<path d="M287.771 215.111C287.551 214.9 287.373 214.646 287.247 214.362C287.121 214.078 287.051 213.771 287.039 213.459L285.257 168.46C285.244 168.147 285.291 167.836 285.394 167.542C285.496 167.249 285.653 166.979 285.856 166.749C286.058 166.519 286.301 166.333 286.572 166.202C286.843 166.07 287.136 165.996 287.434 165.983L292.593 165.759C293.195 165.734 293.782 165.959 294.226 166.387C294.67 166.814 294.933 167.408 294.958 168.038L296.741 213.038C296.765 213.668 296.55 214.283 296.141 214.747C295.733 215.212 295.166 215.487 294.563 215.514L289.405 215.738C289.241 215.745 289.076 215.734 288.914 215.705C288.486 215.626 288.09 215.42 287.771 215.111Z" fill="#FFC003"/>
<path d="M294.354 184.655H285.959C285.356 184.655 284.778 184.404 284.352 183.958C283.926 183.511 283.686 182.906 283.685 182.276V169.827C283.685 168.031 284.367 166.308 285.58 165.038C286.794 163.768 288.44 163.054 290.156 163.054C291.873 163.054 293.519 163.768 294.732 165.038C295.946 166.308 296.628 168.031 296.628 169.827V182.276C296.627 182.906 296.387 183.511 295.961 183.958C295.535 184.404 294.957 184.655 294.354 184.655Z" fill="#2F2E41"/>
<path d="M240.442 201.332L237.151 197.168C236.767 196.682 236.584 196.056 236.64 195.428C236.697 194.799 236.99 194.221 237.454 193.818L270.608 165.108C271.072 164.706 271.67 164.513 272.271 164.573C272.871 164.632 273.424 164.938 273.809 165.424L277.1 169.588C277.29 169.829 277.433 170.106 277.521 170.405C277.609 170.704 277.64 171.018 277.611 171.329C277.583 171.64 277.497 171.942 277.357 172.218C277.218 172.495 277.027 172.739 276.797 172.938L243.644 201.648C243.244 201.994 242.744 202.186 242.226 202.194C241.708 202.202 241.203 202.025 240.795 201.692C240.665 201.585 240.547 201.465 240.442 201.332Z" fill="#FFC003"/>
<path d="M264.892 182.632L259.574 175.833C259.193 175.344 259.012 174.717 259.072 174.089C259.132 173.461 259.427 172.884 259.893 172.484L269.096 164.598C269.753 164.034 270.511 163.612 271.324 163.355C272.138 163.097 272.992 163.01 273.838 163.098C274.683 163.186 275.504 163.448 276.253 163.868C277.002 164.289 277.665 164.859 278.204 165.548C278.742 166.236 279.145 167.029 279.391 167.88C279.637 168.732 279.72 169.626 279.635 170.511C279.551 171.396 279.301 172.255 278.899 173.039C278.498 173.823 277.952 174.517 277.295 175.08L268.092 182.966C267.625 183.365 267.026 183.554 266.426 183.491C265.826 183.428 265.275 183.119 264.892 182.632Z" fill="#2F2E41"/>
<path d="M242.299 184.285L242.205 184.372L239.944 181.668C239.772 181.462 239.563 181.294 239.329 181.173C239.095 181.052 238.841 180.98 238.581 180.962C238.32 180.944 238.059 180.98 237.812 181.067C237.565 181.155 237.337 181.293 237.14 181.473L231.667 186.487C231.271 186.85 231.028 187.363 230.993 187.913C230.958 188.464 231.134 189.006 231.481 189.421L243.885 204.255C244.057 204.46 244.266 204.628 244.499 204.749C244.733 204.87 244.988 204.942 245.248 204.96C245.508 204.978 245.77 204.942 246.017 204.855C246.264 204.767 246.492 204.63 246.689 204.45L252.162 199.436C252.558 199.073 252.801 198.559 252.836 198.009C252.871 197.459 252.695 196.916 252.348 196.501L243.814 186.296L243.909 186.21L242.299 184.285Z" fill="#3F3D56"/>
<path d="M237.745 182.336L237.064 182.961C237.162 183.012 237.247 183.089 237.311 183.183C237.375 183.277 237.415 183.386 237.429 183.501C237.443 183.615 237.43 183.731 237.391 183.839C237.352 183.947 237.288 184.043 237.205 184.119L234.214 186.859C234.131 186.935 234.032 186.989 233.924 187.015C233.817 187.041 233.705 187.04 233.599 187.01C233.492 186.98 233.394 186.924 233.313 186.845C233.233 186.766 233.172 186.668 233.136 186.559L232.499 187.142C232.359 187.27 232.245 187.426 232.163 187.6C232.08 187.775 232.032 187.964 232.019 188.158C232.007 188.352 232.031 188.547 232.091 188.732C232.15 188.916 232.244 189.086 232.366 189.232L244.181 203.361C244.428 203.656 244.777 203.837 245.152 203.863C245.527 203.889 245.896 203.758 246.178 203.5L251.424 198.694C251.706 198.435 251.879 198.07 251.904 197.678C251.929 197.286 251.804 196.899 251.557 196.604L239.742 182.475C239.495 182.18 239.146 181.999 238.771 181.973C238.396 181.947 238.027 182.078 237.745 182.336Z" fill="white"/>
<path d="M285.059 139.633C286.033 137.928 286.796 136.05 286.434 134.031C286.111 132.227 284.871 130.823 283.088 130.638C282.014 130.527 280.945 130.827 279.897 131.023C279.037 131.181 278.163 131.24 277.291 131.199C275.537 131.116 273.817 130.659 272.236 129.858C270.632 129.072 269.207 127.936 268.057 126.525C266.908 125.115 266.06 123.464 265.571 121.682C264.507 117.627 265.297 113.023 267.823 109.723L266.946 109.481L268.088 113.407C268.111 113.488 268.15 113.562 268.204 113.624C268.257 113.687 268.324 113.735 268.398 113.767C268.472 113.799 268.552 113.812 268.632 113.807C268.712 113.801 268.789 113.777 268.859 113.736C270.929 112.367 273.242 111.453 275.659 111.048C278.077 110.644 280.547 110.757 282.921 111.382C284.263 111.735 285.558 112.257 286.78 112.936C287.376 113.267 287.907 112.32 287.309 111.987C285.015 110.735 282.502 109.982 279.922 109.775C277.341 109.568 274.748 109.911 272.298 110.784C270.903 111.281 269.57 111.954 268.329 112.787L269.1 113.115L267.958 109.189C267.933 109.097 267.885 109.014 267.82 108.947C267.754 108.88 267.674 108.832 267.585 108.808C267.497 108.784 267.404 108.783 267.316 108.808C267.228 108.832 267.147 108.88 267.081 108.947C265.906 110.507 265.045 112.3 264.549 114.218C264.054 116.136 263.935 118.139 264.199 120.107C264.454 122.046 265.098 123.907 266.088 125.568C267.078 127.229 268.393 128.651 269.945 129.743C271.496 130.839 273.239 131.602 275.074 131.988C276.908 132.374 278.798 132.375 280.633 131.992C281.66 131.785 282.825 131.489 283.832 131.939C284.198 132.124 284.52 132.39 284.776 132.72C285.032 133.049 285.215 133.434 285.313 133.846C285.884 135.871 284.913 137.794 283.92 139.478L285.059 139.633Z" fill="#2F2E41"/>
<path d="M275.68 178.158L275.667 178.157C275.472 178.157 275.282 178.087 275.13 177.959C274.977 177.83 274.871 177.652 274.828 177.452L274.897 162.196C274.852 161.99 274.877 161.774 274.966 161.584C275.055 161.394 275.203 161.241 275.386 161.152C277.924 159.904 280.545 159.736 283.401 160.64C283.62 160.708 283.804 160.862 283.916 161.07C284.027 161.278 284.057 161.523 283.998 161.754L276.525 177.477C276.477 177.673 276.368 177.847 276.215 177.97C276.062 178.094 275.874 178.16 275.68 178.158Z" fill="#CCCCCC"/>
<path d="M324.539 260.076H237.789C237.696 260.076 237.607 260.038 237.542 259.969C237.476 259.901 237.439 259.807 237.439 259.71C237.439 259.613 237.476 259.52 237.542 259.451C237.607 259.383 237.696 259.344 237.789 259.344H324.539C324.632 259.344 324.72 259.383 324.786 259.451C324.852 259.52 324.889 259.613 324.889 259.71C324.889 259.807 324.852 259.901 324.786 259.969C324.72 260.038 324.632 260.076 324.539 260.076Z" fill="#3F3D56"/>
</svg>
