<svg width="319" height="261" viewBox="0 0 319 261" fill="none" xmlns="http://www.w3.org/2000/svg">
<path d="M66.2215 171.241C51.7989 156.396 45.7075 140.909 49.0689 127.634C53.3826 110.597 72.5462 98.8178 101.646 95.316L101.753 96.2933C73.0588 99.7461 54.1875 111.261 49.9783 127.885C46.707 140.805 52.71 155.954 66.8815 170.54L66.2215 171.241Z" fill="#F0F0F0"/>
<path d="M205.379 223.935C187.379 223.935 167.819 221.139 148.389 215.761C124.363 209.11 102.333 199.072 84.6816 186.731L85.2043 185.913C102.771 198.195 124.703 208.187 148.63 214.81C170.253 220.795 192.038 223.568 211.621 222.837L211.655 223.819C209.587 223.897 207.495 223.936 205.379 223.935Z" fill="#F0F0F0"/>
<path d="M246.672 217.751L246.37 216.819C262.469 211.128 272.538 201.96 275.489 190.306C279.24 175.491 271.091 158.299 252.542 141.897C233.899 125.412 207.015 111.734 176.842 103.382L177.082 102.431C207.388 110.82 234.402 124.569 253.149 141.147C271.991 157.807 280.248 175.355 276.398 190.558C273.363 202.546 263.084 211.949 246.672 217.751Z" fill="#F0F0F0"/>
<path d="M98.8468 224.346C63.4774 207.945 36.2227 186.666 22.1035 164.429L22.8871 163.885C36.9086 185.968 64.0203 207.121 99.228 223.447L98.8468 224.346Z" fill="#F0F0F0"/>
<path d="M223.202 252.761C219.554 252.761 215.843 252.675 212.07 252.505L212.111 251.523C240.266 252.797 265.108 249.274 283.955 241.333L284.307 242.245C267.866 249.172 246.91 252.761 223.202 252.761Z" fill="#F0F0F0"/>
<path d="M202.686 96.1978C196.84 94.2078 190.827 92.3549 184.814 90.6904C150.211 81.1124 116.195 77.7118 86.4442 80.8579L86.3496 79.8792C116.212 76.7227 150.343 80.1316 185.054 89.7396C191.084 91.4088 197.114 93.267 202.977 95.2628L202.686 96.1978Z" fill="#F0F0F0"/>
<path d="M44.1199 172.716C29.6974 157.871 23.606 142.384 26.9673 129.109C31.281 112.072 50.4446 100.293 79.5444 96.7912L79.6518 97.7685C50.9572 101.221 32.0859 112.736 27.8767 129.36C24.6054 142.28 30.6084 157.429 44.7799 172.015L44.1199 172.716Z" fill="#F0F0F0"/>
<path d="M183.272 225.41C165.272 225.41 145.711 222.614 126.282 217.236C102.255 210.585 80.2256 200.547 62.5742 188.206L63.0969 187.388C80.6633 199.67 102.596 209.662 126.523 216.285C148.145 222.27 169.93 225.044 189.514 224.312L189.548 225.294C187.48 225.372 185.388 225.411 183.272 225.41Z" fill="#F0F0F0"/>
<path d="M224.566 219.226L224.265 218.294C240.364 212.603 250.433 203.436 253.384 191.782C257.135 176.967 248.985 159.775 230.437 143.373C211.794 126.888 184.91 113.209 154.736 104.857L154.977 103.906C185.282 112.295 212.297 126.044 231.044 142.622C249.886 159.283 258.142 176.831 254.293 192.033C251.258 204.021 240.978 213.424 224.566 219.226Z" fill="#F0F0F0"/>
<path d="M76.7433 225.821C41.3739 209.42 14.1192 188.141 0 165.904L0.783562 165.36C14.8051 187.443 41.9168 208.596 77.1245 224.922L76.7433 225.821Z" fill="#F0F0F0"/>
<path d="M201.1 254.236C197.452 254.236 193.742 254.151 189.969 253.98L190.009 252.998C218.164 254.272 243.006 250.749 261.854 242.808L262.206 243.72C245.764 250.647 224.809 254.236 201.1 254.236Z" fill="#F0F0F0"/>
<path d="M180.58 97.6732C174.734 95.6832 168.721 93.8303 162.708 92.1658C128.105 82.5878 94.09 79.1872 64.3387 82.3333L64.2441 81.3546C94.1063 78.1981 128.238 81.607 162.949 91.215C168.979 92.8842 175.009 94.7424 180.871 96.7382L180.58 97.6732Z" fill="#F0F0F0"/>
<path d="M16.0307 146.374C22.7903 138.45 33.5729 133.62 43.3443 136.511C34.3297 143.182 27.8622 152.97 25.086 164.146C24.0302 168.46 23.2856 173.374 19.8541 176.011C17.719 177.653 14.8899 178.045 12.2641 177.671C9.63819 177.297 7.15533 176.229 4.70597 175.171L4.04688 175.231C5.94183 164.8 9.27119 154.298 16.0307 146.374Z" fill="#F2F2F2"/>
<path d="M43.3199 136.732C35.1503 138.8 27.8116 143.507 22.3463 150.185C21.1453 151.6 20.1653 153.205 19.4422 154.94C18.7901 156.653 18.5888 158.518 18.8592 160.341C19.0786 162.045 19.4919 163.762 19.3113 165.493C19.2062 166.377 18.9235 167.229 18.4817 167.991C18.0399 168.753 17.449 169.409 16.7478 169.916C15.0319 171.226 12.9681 171.813 10.9307 172.314C8.66869 172.87 6.3107 173.411 4.46677 174.983C4.24335 175.173 3.97379 174.799 4.19687 174.609C7.405 171.875 11.8636 172.226 15.4131 170.239C17.0693 169.313 18.4685 167.858 18.8086 165.863C19.1061 164.118 18.6814 162.347 18.4449 160.623C18.1562 158.849 18.2873 157.028 18.8268 155.319C19.463 153.552 20.3823 151.91 21.5453 150.465C24.1139 147.168 27.1623 144.314 30.579 142.007C34.4644 139.351 38.7556 137.41 43.267 136.267C43.5463 136.197 43.5973 136.662 43.3199 136.732Z" fill="white"/>
<path d="M23.9801 147.926C23.0331 146.815 22.4945 145.389 22.4607 143.901C22.4268 142.413 22.8998 140.962 23.7952 139.805C23.9772 139.572 24.3326 139.856 24.1504 140.09C23.3147 141.165 22.8742 142.518 22.9085 143.903C22.9427 145.288 23.4494 146.615 24.3371 147.644C24.5298 147.868 24.1716 148.149 23.9801 147.926Z" fill="white"/>
<path d="M18.6373 159.492C21.5403 159.693 24.4093 158.743 26.6722 156.831C26.8962 156.642 27.1659 157.015 26.9421 157.205C24.5837 159.19 21.5961 160.172 18.5757 159.955C18.2878 159.934 18.351 159.471 18.6373 159.492Z" fill="white"/>
<path d="M34.5655 139.962C34.8464 140.472 35.2439 140.901 35.7224 141.21C36.2009 141.52 36.7454 141.7 37.307 141.735C37.595 141.752 37.5315 142.216 37.2453 142.199C36.625 142.157 36.0239 141.957 35.4945 141.617C34.9651 141.276 34.5236 140.805 34.2084 140.245C34.1745 140.194 34.1601 140.133 34.1682 140.072C34.1763 140.011 34.2063 139.955 34.252 139.917C34.2995 139.88 34.359 139.864 34.4177 139.872C34.4765 139.881 34.5296 139.913 34.5655 139.962Z" fill="white"/>
<path d="M57.2204 169.407C57.0403 169.401 56.8602 169.396 56.6778 169.394C54.2559 169.336 51.8335 169.484 49.4346 169.836C49.2487 169.86 49.0606 169.887 48.8758 169.917C43.1048 170.83 37.546 172.855 32.482 175.889C30.468 177.099 28.5449 178.467 26.7294 179.981C24.2222 182.073 21.6629 184.549 18.7277 185.621C18.4226 185.737 18.1111 185.832 17.7947 185.907L4.173 176.067C4.15277 176.029 4.13026 175.993 4.10988 175.955L3.54883 175.588C3.63724 175.503 3.73069 175.417 3.81911 175.332C3.8702 175.282 3.92434 175.235 3.97542 175.185C4.01044 175.153 4.04563 175.121 4.07547 175.09C4.08709 175.079 4.09886 175.068 4.10834 175.061C4.13818 175.029 4.16907 175.004 4.19676 174.976C4.71784 174.493 5.24307 174.013 5.77245 173.536C5.7746 173.533 5.7746 173.533 5.77979 173.532C9.8223 169.909 14.1896 166.607 18.8974 164.103C19.0391 164.028 19.1827 163.949 19.3306 163.878C21.4587 162.762 23.6704 161.829 25.9438 161.09C27.1898 160.689 28.4545 160.354 29.7329 160.087C33.0375 159.404 36.4242 159.268 39.7691 159.685C46.4369 160.517 52.7759 163.57 56.9086 168.989C57.0142 169.128 57.1169 169.265 57.2204 169.407Z" fill="#F2F2F2"/>
<path d="M57.0688 169.565C49.3549 166.074 40.785 165.212 32.5762 167.103C30.8021 167.478 29.0956 168.142 27.5194 169.072C26.0119 170.03 24.7773 171.392 23.9437 173.017C23.1374 174.516 22.4786 176.148 21.3378 177.416C20.7446 178.056 20.0287 178.557 19.237 178.888C18.4454 179.218 17.5958 179.37 16.7441 179.333C14.6197 179.299 12.6337 178.469 10.7185 177.587C8.59206 176.607 6.39819 175.554 4.02083 175.648C3.73278 175.659 3.73268 175.191 4.0203 175.18C8.1565 175.016 11.5142 178.103 15.4921 178.752C17.3482 179.054 19.3028 178.774 20.7236 177.394C21.966 176.188 22.6467 174.507 23.4506 172.982C24.2415 171.384 25.3947 170.012 26.8093 168.988C28.3351 167.977 30.0144 167.245 31.7751 166.823C35.7246 165.807 39.8022 165.447 43.8587 165.756C48.4901 166.082 53.0342 167.233 57.2943 169.161C57.5579 169.28 57.3307 169.684 57.0688 169.565Z" fill="white"/>
<path d="M35.1822 166.332C35.0658 164.849 35.4573 163.371 36.2869 162.162C37.1165 160.952 38.3301 160.091 39.7111 159.731C39.9908 159.659 40.1106 160.11 39.8306 160.182C38.5441 160.515 37.4136 161.317 36.6433 162.445C35.873 163.573 35.5135 164.951 35.6298 166.331C35.6548 166.631 35.207 166.63 35.1822 166.332Z" fill="white"/>
<path d="M24.2545 172.201C26.4563 174.189 29.2939 175.237 32.2016 175.135C32.4897 175.125 32.4899 175.593 32.2022 175.603C29.1762 175.703 26.2253 174.607 23.9384 172.532C23.7206 172.335 24.0379 172.004 24.2545 172.201Z" fill="white"/>
<path d="M48.2187 166.633C48.1493 167.217 48.2198 167.81 48.4237 168.358C48.6276 168.906 48.9585 169.393 49.3867 169.774C49.6069 169.969 49.2893 170.299 49.0706 170.106C48.5993 169.682 48.2344 169.144 48.0079 168.539C47.7814 167.934 47.7 167.28 47.771 166.634C47.7728 166.572 47.7969 166.514 47.8384 166.471C47.88 166.427 47.9358 166.402 47.9945 166.4C48.0538 166.4 48.1106 166.425 48.1526 166.468C48.1945 166.512 48.2183 166.571 48.2187 166.633Z" fill="white"/>
<path d="M280.9 211.331C277.081 201.493 268.478 193.155 258.346 192.444C264.692 201.894 267.636 213.386 266.659 224.888C266.266 229.322 265.388 234.211 267.772 237.901C269.255 240.197 271.794 241.561 274.387 242.131C276.98 242.702 279.662 242.569 282.309 242.433L282.91 242.721C284.479 232.231 284.719 221.17 280.9 211.331Z" fill="#F2F2F2"/>
<path d="M258.294 192.663C265.323 197.482 270.722 204.494 273.723 212.703C274.399 214.458 274.806 216.314 274.929 218.202C274.993 220.045 274.583 221.872 273.742 223.494C272.988 225.022 272.046 226.494 271.66 228.188C271.475 229.058 271.467 229.959 271.639 230.832C271.81 231.705 272.155 232.53 272.653 233.254C273.848 235.091 275.603 236.369 277.36 237.557C279.312 238.876 281.359 240.213 282.591 242.342C282.74 242.6 283.114 242.342 282.965 242.085C280.822 238.382 276.51 237.146 273.806 234.028C272.544 232.573 271.694 230.711 272.015 228.712C272.296 226.964 273.265 225.446 274.042 223.905C274.884 222.336 275.346 220.575 275.387 218.776C275.356 216.888 275.018 215.019 274.387 213.249C273.028 209.241 271.074 205.481 268.598 202.108C265.792 198.241 262.374 194.905 258.493 192.244C258.252 192.079 258.055 192.499 258.294 192.663Z" fill="white"/>
<path d="M272.907 210C274.156 209.287 275.121 208.132 275.631 206.743C276.142 205.354 276.163 203.82 275.691 202.416C275.595 202.133 275.169 202.276 275.265 202.56C275.707 203.867 275.687 205.295 275.209 206.588C274.732 207.88 273.828 208.952 272.661 209.609C272.408 209.752 272.655 210.142 272.907 210Z" fill="white"/>
<path d="M274.229 222.771C271.43 221.941 269.033 220.038 267.516 217.442C267.366 217.185 266.992 217.442 267.142 217.699C268.725 220.397 271.223 222.372 274.138 223.229C274.416 223.311 274.505 222.852 274.229 222.771Z" fill="white"/>
<path d="M265.507 198.782C265.079 199.163 264.567 199.427 264.017 199.551C263.466 199.674 262.896 199.652 262.355 199.488C262.079 199.403 261.99 199.862 262.264 199.946C262.862 200.125 263.493 200.148 264.101 200.013C264.709 199.878 265.276 199.59 265.753 199.173C265.801 199.138 265.834 199.085 265.846 199.024C265.858 198.964 265.848 198.902 265.817 198.849C265.784 198.797 265.733 198.761 265.675 198.749C265.617 198.736 265.557 198.748 265.507 198.782Z" fill="white"/>
<path d="M234.705 218.551C234.876 218.609 235.048 218.668 235.22 218.73C237.52 219.526 239.754 220.517 241.9 221.691C242.067 221.779 242.236 221.871 242.4 221.964C247.542 224.852 252.127 228.713 255.92 233.35C257.429 235.197 258.8 237.161 260.023 239.225C261.712 242.076 263.326 245.308 265.746 247.349C265.996 247.565 266.259 247.765 266.533 247.947L282.525 243.466C282.557 243.437 282.589 243.411 282.621 243.382L283.267 243.233C283.212 243.122 283.151 243.008 283.095 242.897C283.063 242.833 283.027 242.769 282.995 242.705C282.972 242.662 282.95 242.619 282.932 242.579C282.924 242.565 282.916 242.551 282.91 242.54C282.892 242.5 282.871 242.465 282.854 242.429C282.518 241.791 282.178 241.155 281.833 240.52C281.832 240.516 281.832 240.516 281.827 240.513C279.185 235.68 276.133 231.036 272.504 227.023C272.394 226.902 272.284 226.778 272.168 226.659C270.522 224.86 268.739 223.204 266.836 221.709C265.791 220.894 264.707 220.134 263.589 219.433C260.697 217.629 257.551 216.311 254.266 215.528C247.719 213.969 240.767 214.616 235.133 218.268C234.989 218.361 234.848 218.454 234.705 218.551Z" fill="#F2F2F2"/>
<path d="M234.789 218.753C243.177 218.176 251.525 220.376 258.648 225.042C260.199 226.018 261.593 227.243 262.778 228.673C263.89 230.105 264.615 231.822 264.878 233.645C265.155 235.341 265.251 237.108 265.918 238.704C266.271 239.515 266.784 240.239 267.423 240.829C268.063 241.418 268.814 241.859 269.628 242.124C271.64 242.838 273.777 242.754 275.865 242.596C278.182 242.421 280.587 242.2 282.796 243.124C283.063 243.236 283.214 242.795 282.947 242.684C279.104 241.076 274.949 242.803 270.994 242.016C269.149 241.649 267.398 240.698 266.503 238.9C265.721 237.327 265.62 235.504 265.354 233.785C265.122 232.002 264.477 230.305 263.474 228.843C262.362 227.355 261.016 226.075 259.493 225.059C256.1 222.715 252.375 220.943 248.455 219.808C243.989 218.487 239.339 217.975 234.707 218.293C234.42 218.313 234.504 218.773 234.789 218.753Z" fill="white"/>
<path d="M256.445 223.399C257.031 222.043 257.137 220.513 256.745 219.083C256.352 217.653 255.486 216.415 254.301 215.591C254.061 215.425 253.803 215.807 254.043 215.974C255.148 216.739 255.955 217.892 256.318 219.225C256.681 220.557 256.577 221.982 256.023 223.241C255.903 223.515 256.325 223.671 256.445 223.399Z" fill="white"/>
<path d="M264.848 232.767C262.136 233.866 259.126 233.855 256.42 232.737C256.152 232.626 256.002 233.067 256.269 233.178C259.087 234.336 262.219 234.34 265.04 233.19C265.308 233.08 265.116 232.658 264.848 232.767Z" fill="white"/>
<path d="M244.07 219.102C243.948 219.677 243.691 220.21 243.323 220.655C242.954 221.099 242.486 221.441 241.96 221.65C241.69 221.756 241.883 222.179 242.151 222.073C242.732 221.84 243.248 221.461 243.656 220.971C244.064 220.481 244.351 219.893 244.491 219.26C244.51 219.202 244.506 219.138 244.48 219.083C244.455 219.027 244.411 218.984 244.356 218.961C244.3 218.94 244.239 218.944 244.185 218.97C244.132 218.997 244.09 219.044 244.07 219.102Z" fill="white"/>
<path d="M206.802 244.833C208.88 244.833 210.564 243.072 210.564 240.899C210.564 238.726 208.88 236.965 206.802 236.965C204.724 236.965 203.039 238.726 203.039 240.899C203.039 243.072 204.724 244.833 206.802 244.833Z" fill="#FD6584"/>
<path d="M220.128 177.829C222.206 177.829 223.89 176.068 223.89 173.895C223.89 171.722 222.206 169.961 220.128 169.961C218.05 169.961 216.365 171.722 216.365 173.895C216.365 176.068 218.05 177.829 220.128 177.829Z" fill="#E6E6E6"/>
<path d="M150.118 68.7084C152.196 68.7084 153.881 66.9471 153.881 64.7744C153.881 62.6017 152.196 60.8405 150.118 60.8405C148.04 60.8405 146.355 62.6017 146.355 64.7744C146.355 66.9471 148.04 68.7084 150.118 68.7084Z" fill="#E6E6E6"/>
<path d="M71.2715 215.68C71.2715 216.682 71.3031 217.683 71.3701 218.676C71.441 219.863 71.5632 221.042 71.7287 222.212C72.2851 226.153 73.3484 229.997 74.8898 233.64C74.9686 233.821 75.0474 234.003 75.1263 234.184L75.2445 234.456C75.2839 234.547 75.3273 234.637 75.3667 234.724C75.4219 234.843 75.4731 234.959 75.5283 235.074C75.5953 235.218 75.6623 235.362 75.7333 235.507C75.7412 235.523 75.749 235.544 75.7609 235.564C75.82 235.688 75.8752 235.808 75.9382 235.931C75.9498 235.958 75.963 235.984 75.9776 236.01C76.0447 236.15 76.1156 236.294 76.1865 236.434C76.2654 236.582 76.3403 236.735 76.4191 236.883C76.6083 237.25 76.8054 237.613 77.0064 237.975C77.0655 238.082 77.1246 238.19 77.1877 238.297C77.2429 238.396 77.298 238.494 77.3572 238.593C77.3966 238.659 77.436 238.729 77.4754 238.795C77.5385 238.907 77.6015 239.014 77.6685 239.125C77.8144 239.368 77.9641 239.611 78.11 239.854H78.1139C78.1809 239.966 78.2519 240.077 78.3228 240.184V240.188C78.5317 240.518 78.7485 240.848 78.9653 241.173L78.9668 241.173L78.9681 241.174L78.969 241.176L78.9692 241.177C79.1427 241.441 79.324 241.697 79.5013 241.952V241.956C79.6196 242.117 79.7339 242.282 79.8521 242.442C79.9467 242.574 80.0452 242.71 80.1438 242.842C80.1635 242.871 80.1871 242.896 80.2068 242.925V242.929C80.2344 242.966 80.262 242.999 80.2896 243.036C80.7074 243.596 81.1384 244.144 81.5824 244.68L81.6534 244.767C81.677 244.796 81.7046 244.824 81.7283 244.857C81.7677 244.903 81.8031 244.948 81.8426 244.993C81.878 245.039 81.9174 245.084 81.9569 245.129C84.2717 247.856 86.8965 250.276 89.7728 252.337C90.1551 252.613 90.5453 252.881 90.9355 253.141C91.0341 253.207 91.1326 253.273 91.2312 253.334C91.2587 253.355 91.2903 253.376 91.3179 253.396C91.373 253.429 91.4243 253.462 91.4795 253.499C91.5307 253.532 91.5819 253.565 91.6371 253.598C91.846 253.734 92.0589 253.866 92.2717 253.998C92.3229 254.031 92.3781 254.064 92.4333 254.097C92.4846 254.126 92.5397 254.159 92.5949 254.192C92.5949 254.196 92.5949 254.196 92.5988 254.196H92.6028V254.2H92.6067C92.8708 254.361 93.1388 254.517 93.4108 254.67C93.5566 254.752 93.7064 254.839 93.8562 254.917C94.1951 255.111 94.5381 255.296 94.881 255.473C95.0031 255.535 95.1293 255.597 95.2515 255.663C95.3539 255.712 95.4564 255.766 95.5589 255.815C95.5904 255.832 95.618 255.844 95.6456 255.861C95.7323 255.902 95.8151 255.943 95.9018 255.984C95.9964 256.03 96.091 256.075 96.1816 256.12C96.2881 256.17 96.3906 256.219 96.497 256.264C96.8911 256.45 97.2892 256.627 97.6873 256.796C99.1139 257.407 100.572 257.936 102.054 258.379C102.121 258.399 102.192 258.42 102.263 258.44C102.898 258.626 103.536 258.795 104.179 258.947C105.302 259.219 106.436 259.442 107.58 259.615H107.588C107.726 259.635 107.86 259.656 107.998 259.677C108.01 259.677 108.022 259.681 108.038 259.681C108.038 259.685 108.038 259.685 108.042 259.681C108.191 259.701 108.345 259.722 108.495 259.743C108.505 259.746 108.516 259.747 108.526 259.747C108.668 259.767 108.814 259.784 108.956 259.8C109.11 259.817 109.263 259.833 109.417 259.85C109.535 259.862 109.654 259.874 109.772 259.887C109.782 259.89 109.793 259.892 109.803 259.891C109.91 259.899 110.016 259.912 110.123 259.92H110.138C110.229 259.928 110.324 259.936 110.414 259.945C111.514 260.035 112.618 260.076 113.737 260.076C114.947 260.076 116.149 260.027 117.336 259.92H117.347C117.604 259.895 117.856 259.87 118.108 259.846C118.175 259.837 118.238 259.833 118.305 259.825C118.317 259.825 118.333 259.821 118.345 259.821C118.364 259.817 118.384 259.817 118.408 259.813C118.418 259.813 118.429 259.812 118.439 259.809C118.526 259.8 118.613 259.788 118.703 259.78L118.999 259.743C119.097 259.73 119.196 259.714 119.294 259.701C119.318 259.697 119.338 259.697 119.361 259.693C119.432 259.685 119.503 259.673 119.574 259.66C119.61 259.656 119.645 259.652 119.677 259.648C119.748 259.635 119.815 259.627 119.886 259.615H119.89C122.052 259.289 124.187 258.786 126.275 258.111C126.385 258.074 126.496 258.041 126.606 258.004C126.61 258.004 126.614 257.999 126.618 257.999C126.649 257.987 126.685 257.979 126.716 257.966C127.012 257.868 127.304 257.764 127.595 257.657C127.997 257.517 128.395 257.365 128.793 257.208C128.9 257.163 129.006 257.122 129.113 257.076C129.329 256.99 129.542 256.899 129.755 256.808C130.118 256.656 130.48 256.495 130.839 256.33C131.174 256.174 131.505 256.017 131.836 255.852C131.844 255.848 131.856 255.848 131.864 255.84C131.939 255.803 132.014 255.766 132.085 255.729H132.089C133.904 254.818 135.654 253.773 137.327 252.601C137.863 252.226 138.391 251.838 138.911 251.439C139.329 251.113 139.739 250.783 140.149 250.446C142.171 248.764 144.043 246.893 145.742 244.857V244.853C145.864 244.713 145.978 244.569 146.097 244.425C146.116 244.404 146.132 244.383 146.148 244.367C146.223 244.272 146.294 244.182 146.368 244.091V244.087C146.467 243.967 146.566 243.844 146.66 243.72C146.684 243.691 146.703 243.666 146.723 243.642V243.638C146.802 243.539 146.877 243.44 146.956 243.337C146.995 243.287 147.031 243.238 147.07 243.188V243.184C147.303 242.879 147.527 242.574 147.752 242.261C147.811 242.179 147.87 242.092 147.933 242.006C148.217 241.606 148.493 241.198 148.761 240.79V240.786C148.863 240.633 148.962 240.477 149.064 240.324C149.163 240.168 149.262 240.011 149.36 239.854C149.459 239.69 149.561 239.529 149.66 239.364L149.671 239.339C149.77 239.183 149.869 239.018 149.963 238.857C150.038 238.725 150.113 238.598 150.188 238.47C150.235 238.383 150.286 238.297 150.334 238.206C150.352 238.178 150.369 238.149 150.385 238.12C150.495 237.918 150.606 237.716 150.716 237.514C150.846 237.279 150.972 237.04 151.098 236.801C151.146 236.702 151.197 236.603 151.248 236.504C151.268 236.471 151.283 236.438 151.299 236.405C151.358 236.29 151.417 236.17 151.473 236.051C151.532 235.935 151.591 235.816 151.65 235.696C151.705 235.581 151.764 235.461 151.82 235.342C151.863 235.251 151.902 235.161 151.946 235.07C151.949 235.063 151.953 235.056 151.957 235.049C151.977 235.004 151.997 234.963 152.013 234.922C152.017 234.915 152.021 234.908 152.024 234.901C152.068 234.81 152.107 234.716 152.151 234.625C152.206 234.505 152.257 234.382 152.312 234.262C152.348 234.18 152.387 234.093 152.423 234.007C152.474 233.887 152.529 233.768 152.576 233.644C152.631 233.52 152.683 233.397 152.734 233.269C152.749 233.238 152.762 233.207 152.773 233.174C152.801 233.117 152.821 233.059 152.844 233.001C152.907 232.849 152.97 232.692 153.03 232.54C153.101 232.367 153.168 232.189 153.231 232.016C153.294 231.856 153.353 231.691 153.412 231.526L153.436 231.468C154.354 228.939 155.05 226.328 155.517 223.667V223.663C155.78 222.144 155.968 220.611 156.08 219.072C156.084 218.986 156.092 218.903 156.096 218.821C156.167 217.778 156.199 216.731 156.199 215.68C156.199 215.215 156.191 214.753 156.179 214.292C155.904 204.639 152.612 195.346 146.806 187.835C146.68 187.67 146.554 187.505 146.424 187.34C146.294 187.175 146.16 187.014 146.03 186.854C141.709 181.563 136.259 177.408 130.121 174.724C123.983 172.039 117.327 170.9 110.69 171.399C104.053 171.897 97.6216 174.019 91.9132 177.593C86.2047 181.168 81.3794 186.094 77.8262 191.976C77.6331 192.298 77.44 192.623 77.2547 192.949C77.0655 193.278 76.8842 193.608 76.7029 193.942C73.1322 200.578 71.2613 208.066 71.2715 215.68Z" fill="#F2F2F2"/>
<path d="M112.05 186.641C119.033 188.514 126.188 189.594 133.392 189.862C134.482 189.924 135.574 189.916 136.662 189.838C139.054 189.628 141.103 188.842 143.385 188.412C144.482 188.206 145.704 188.056 146.809 187.833C146.554 187.502 146.294 187.175 146.029 186.852C143.648 187.063 141.229 187.751 138.819 188.071C134.722 188.616 130.132 188.008 127.026 186.509C125.519 185.782 124.365 184.874 122.864 184.143C122.659 184.034 122.438 183.963 122.21 183.934C121.777 183.92 121.35 184.036 120.978 184.268C118.459 185.598 114.801 186.679 111.406 186.084C111.153 186.291 111.634 186.527 112.05 186.641Z" fill="white"/>
<path d="M97.0285 191.321C96.9975 191.315 96.9665 191.31 96.9355 191.305C97.0657 191.22 97.1882 191.123 97.3017 191.015L97.0285 191.321Z" fill="white"/>
<path d="M76.7051 193.944C78.123 194.062 79.5483 194.15 80.981 194.208C82.0704 194.27 83.1624 194.262 84.2509 194.185C86.643 193.974 88.692 193.189 90.9739 192.759C93.0653 192.366 95.6067 192.177 96.9346 191.304C93.5026 190.683 89.9468 191.948 86.4079 192.418C83.5454 192.786 80.6436 192.636 77.8296 191.975C77.4378 192.62 77.063 193.276 76.7051 193.944Z" fill="white"/>
<path d="M93.8574 254.917C94.1964 255.11 94.5393 255.296 94.8822 255.473C95.0044 255.535 95.1305 255.597 95.2527 255.663C95.3552 255.712 95.4577 255.766 95.5601 255.815C95.5917 255.832 95.6193 255.844 95.6469 255.86C95.7336 255.902 95.8163 255.943 95.903 255.984C95.9976 256.029 96.0922 256.075 96.1829 256.12C96.2893 256.17 96.3918 256.219 96.4982 256.264C96.8924 256.45 97.2904 256.627 97.6885 256.796C99.1152 257.407 100.573 257.936 102.056 258.378C102.123 258.399 102.194 258.42 102.265 258.44C102.899 258.626 103.538 258.795 104.18 258.947C105.303 259.219 106.437 259.442 107.582 259.615H107.59C107.727 259.635 107.862 259.656 107.999 259.677C108.011 259.677 108.023 259.681 108.039 259.681C108.039 259.685 108.039 259.685 108.043 259.681C108.193 259.701 108.346 259.722 108.496 259.743C108.506 259.746 108.517 259.747 108.528 259.747C108.67 259.767 108.815 259.784 108.957 259.8C109.111 259.817 109.265 259.833 109.418 259.85C109.537 259.862 109.655 259.874 109.773 259.887C109.783 259.89 109.794 259.892 109.805 259.891C109.911 259.899 110.017 259.911 110.124 259.92H110.14C110.23 259.928 110.325 259.936 110.416 259.944C111.515 260.035 112.619 260.076 113.738 260.076C114.948 260.076 116.15 260.027 117.337 259.92H117.349C117.605 259.895 117.857 259.87 118.109 259.846C118.176 259.837 118.239 259.833 118.306 259.825C118.318 259.825 118.334 259.821 118.346 259.821C118.366 259.817 118.385 259.817 118.409 259.813C118.42 259.813 118.43 259.812 118.44 259.808C118.527 259.8 118.614 259.788 118.705 259.78L119 259.743C119.099 259.73 119.197 259.714 119.296 259.701C119.319 259.697 119.339 259.697 119.363 259.693C119.434 259.685 119.505 259.672 119.576 259.66C119.611 259.656 119.647 259.652 119.678 259.648C119.749 259.635 119.816 259.627 119.887 259.615H119.891C122.054 259.289 124.189 258.786 126.276 258.111C126.386 258.074 126.497 258.041 126.607 258.003C126.098 255.522 125.051 253.196 123.545 251.205C122.039 249.214 120.116 247.612 117.924 246.522C118.466 245.982 118.841 245.284 119 244.519C119.102 244.026 119.111 243.517 119.024 243.02C118.937 242.524 118.758 242.05 118.496 241.626C117.984 240.805 117.182 240.23 116.265 240.027L110.423 238.75C109.483 238.558 108.508 238.762 107.711 239.318C106.914 239.874 106.359 240.736 106.167 241.717C106.107 242.018 106.081 242.325 106.088 242.632C100.463 246.547 96.4154 250.606 93.8574 254.917Z" fill="#FFC003"/>
<path d="M111.105 236.338C117.826 236.338 123.275 230.641 123.275 223.614C123.275 216.587 117.826 210.89 111.105 210.89C104.384 210.89 98.9355 216.587 98.9355 223.614C98.9355 230.641 104.384 236.338 111.105 236.338Z" fill="#FFB8B8"/>
<path d="M103.516 234.584C102.219 233.657 100.893 231.876 100.009 230.541C98.8362 228.787 98.0295 226.794 97.6408 224.693C97.2521 222.591 97.2901 220.428 97.7522 218.343C97.8996 217.509 98.2618 216.733 98.7997 216.099C99.3729 215.506 100.309 215.225 101.009 215.644C100.818 215.109 100.734 214.54 100.762 213.97C100.789 213.4 100.929 212.842 101.171 212.331C101.663 211.31 102.375 210.423 103.252 209.739C104.928 208.39 106.923 207.539 109.025 207.279C111.126 207.019 113.256 207.359 115.188 208.262C115.948 208.63 114.699 205.786 115.495 206.06C116.285 206.38 117.164 206.364 117.943 206.015C118.692 205.621 121.172 207.961 120.885 207.138C121.453 207.408 121.946 207.823 122.319 208.346C122.692 208.869 122.933 209.482 123.018 210.128C123.104 210.774 123.031 211.432 122.808 212.041C122.585 212.649 122.218 213.189 121.741 213.61C121.113 214.164 120.329 214.483 119.641 214.954C118.436 215.84 117.583 217.157 117.244 218.656C116.904 220.155 117.101 221.732 117.797 223.089C117.073 222.603 116.28 222.242 115.446 222.021C115.028 221.914 114.591 221.913 114.173 222.019C113.754 222.124 113.366 222.332 113.04 222.626C112.767 222.952 112.562 223.333 112.435 223.745C112.309 224.157 112.264 224.592 112.304 225.023C112.331 225.886 112.528 226.737 112.55 227.601C112.614 230.135 113.913 234.952 112.033 236.299C110.55 237.362 105.288 235.85 103.516 234.584Z" fill="#2F2E41"/>
<path d="M318.601 15.8735H0.399416C0.292676 15.871 0.191106 15.8249 0.116453 15.7451C0.0418002 15.6653 0 15.5581 0 15.4465C0 15.3349 0.0418002 15.2277 0.116453 15.1479C0.191106 15.0681 0.292676 15.022 0.399416 15.0195H318.601C318.707 15.022 318.809 15.0681 318.884 15.1479C318.958 15.2277 319 15.3349 319 15.4465C319 15.5581 318.958 15.6653 318.884 15.7451C318.809 15.8249 318.707 15.871 318.601 15.8735Z" fill="#CACACA"/>
<path d="M9.39228 9.89554C11.8192 9.89554 13.7865 7.7927 13.7865 5.19872C13.7865 2.60473 11.8192 0.501892 9.39228 0.501892C6.96541 0.501892 4.99805 2.60473 4.99805 5.19872C4.99805 7.7927 6.96541 9.89554 9.39228 9.89554Z" fill="#3F3D56"/>
<path d="M24.57 9.89554C26.9969 9.89554 28.9643 7.7927 28.9643 5.19872C28.9643 2.60473 26.9969 0.501892 24.57 0.501892C22.1431 0.501892 20.1758 2.60473 20.1758 5.19872C20.1758 7.7927 22.1431 9.89554 24.57 9.89554Z" fill="#3F3D56"/>
<path d="M39.7536 9.89554C42.1805 9.89554 44.1479 7.7927 44.1479 5.19872C44.1479 2.60473 42.1805 0.501892 39.7536 0.501892C37.3267 0.501892 35.3594 2.60473 35.3594 5.19872C35.3594 7.7927 37.3267 9.89554 39.7536 9.89554Z" fill="#3F3D56"/>
<path d="M309.505 3.3745H298.719C298.505 3.36957 298.302 3.27744 298.153 3.11782C298.004 2.95821 297.92 2.74381 297.92 2.52053C297.92 2.29725 298.004 2.08286 298.153 1.92324C298.302 1.76363 298.505 1.67149 298.719 1.66656H309.505C309.718 1.67149 309.921 1.76363 310.071 1.92324C310.22 2.08286 310.304 2.29725 310.304 2.52053C310.304 2.74381 310.22 2.95821 310.071 3.11782C309.921 3.27744 309.718 3.36957 309.505 3.3745Z" fill="#3F3D56"/>
<path d="M309.505 6.5772H298.719C298.505 6.57229 298.302 6.48017 298.153 6.32055C298.004 6.16094 297.92 5.94652 297.92 5.72323C297.92 5.49994 298.004 5.28553 298.153 5.12591C298.302 4.96629 298.505 4.87417 298.719 4.86926H309.505C309.718 4.87417 309.921 4.96629 310.071 5.12591C310.22 5.28553 310.304 5.49994 310.304 5.72323C310.304 5.94652 310.22 6.16094 310.071 6.32055C309.921 6.48017 309.718 6.57229 309.505 6.5772Z" fill="#3F3D56"/>
<path d="M309.505 9.77941H298.719C298.505 9.7745 298.302 9.68238 298.153 9.52276C298.004 9.36315 297.92 9.14873 297.92 8.92544C297.92 8.70215 298.004 8.48774 298.153 8.32812C298.302 8.1685 298.505 8.07638 298.719 8.07147H309.505C309.718 8.07638 309.921 8.1685 310.071 8.32812C310.22 8.48774 310.304 8.70215 310.304 8.92544C310.304 9.14873 310.22 9.36315 310.071 9.52276C309.921 9.68238 309.718 9.7745 309.505 9.77941Z" fill="#3F3D56"/>
<path d="M119.474 159.927C119.218 159.926 118.964 159.873 118.728 159.769C118.375 159.621 118.073 159.365 117.862 159.034C117.65 158.704 117.54 158.314 117.544 157.917V155.903C117.543 155.48 117.383 155.075 117.097 154.777C116.811 154.478 116.424 154.31 116.02 154.309C115.511 154.309 115.024 154.097 114.664 153.721C114.304 153.345 114.102 152.836 114.102 152.304V124.711C114.102 124.18 114.304 123.67 114.664 123.294C115.024 122.918 115.511 122.706 116.02 122.706H203.452C203.961 122.706 204.448 122.918 204.808 123.294C205.167 123.67 205.37 124.18 205.37 124.711V152.304C205.37 152.836 205.167 153.345 204.808 153.721C204.448 154.097 203.961 154.309 203.452 154.309H126.256C126.056 154.309 125.857 154.35 125.673 154.43C125.488 154.51 125.32 154.628 125.178 154.776L120.818 159.335C120.643 159.522 120.434 159.67 120.203 159.772C119.972 159.874 119.724 159.926 119.474 159.927Z" fill="white"/>
<path d="M119.468 160.339C119.16 160.339 118.855 160.275 118.57 160.15C118.145 159.971 117.781 159.663 117.527 159.264C117.272 158.866 117.138 158.396 117.143 157.917V155.903C117.143 155.59 117.024 155.29 116.812 155.068C116.6 154.847 116.313 154.722 116.014 154.722C115.4 154.721 114.813 154.466 114.379 154.013C113.946 153.559 113.702 152.945 113.701 152.304V124.711C113.702 124.07 113.946 123.456 114.379 123.003C114.813 122.549 115.4 122.294 116.013 122.294H203.446C204.059 122.294 204.647 122.549 205.08 123.003C205.514 123.456 205.757 124.07 205.758 124.711V152.304C205.757 152.945 205.514 153.559 205.08 154.013C204.647 154.466 204.059 154.721 203.446 154.722H126.25C126.101 154.721 125.954 154.751 125.817 154.811C125.68 154.87 125.555 154.958 125.451 155.068L121.091 159.626C120.879 159.851 120.626 160.03 120.348 160.153C120.069 160.275 119.77 160.339 119.468 160.339ZM116.013 123.118C115.609 123.118 115.222 123.286 114.936 123.585C114.651 123.884 114.49 124.289 114.489 124.711V152.304C114.49 152.726 114.651 153.131 114.936 153.43C115.222 153.729 115.609 153.897 116.014 153.897C116.522 153.898 117.01 154.11 117.369 154.486C117.729 154.862 117.931 155.371 117.932 155.903V157.917C117.932 158.232 118.021 158.54 118.189 158.802C118.356 159.064 118.594 159.268 118.872 159.389C119.151 159.509 119.457 159.541 119.753 159.479C120.048 159.418 120.32 159.266 120.533 159.043L124.893 154.485C125.071 154.298 125.282 154.15 125.515 154.049C125.748 153.948 125.998 153.897 126.25 153.897H203.446C203.85 153.897 204.237 153.729 204.523 153.43C204.809 153.131 204.969 152.726 204.97 152.304V124.711C204.969 124.289 204.809 123.884 204.523 123.585C204.237 123.286 203.85 123.118 203.446 123.118L116.013 123.118Z" fill="#3F3D56"/>
<path d="M195.937 135.197H125.039C124.768 135.197 124.508 135.085 124.317 134.885C124.125 134.684 124.018 134.413 124.018 134.13C124.018 133.846 124.125 133.575 124.317 133.375C124.508 133.174 124.768 133.062 125.039 133.062H195.937C196.208 133.062 196.468 133.174 196.659 133.375C196.851 133.575 196.959 133.846 196.959 134.13C196.959 134.413 196.851 134.684 196.659 134.885C196.468 135.085 196.208 135.197 195.937 135.197Z" fill="#FFC003"/>
<path d="M195.807 139.734H125.039C124.768 139.734 124.508 139.621 124.317 139.421C124.125 139.221 124.018 138.949 124.018 138.666C124.018 138.383 124.125 138.111 124.317 137.911C124.508 137.711 124.768 137.598 125.039 137.598H195.807C196.078 137.598 196.338 137.711 196.529 137.911C196.721 138.111 196.828 138.383 196.828 138.666C196.828 138.949 196.721 139.221 196.529 139.421C196.338 139.621 196.078 139.734 195.807 139.734Z" fill="#E6E6E6"/>
<path d="M195.737 144.269H125.039C124.768 144.269 124.508 144.157 124.317 143.957C124.125 143.756 124.018 143.485 124.018 143.202C124.018 142.918 124.125 142.647 124.317 142.447C124.508 142.246 124.768 142.134 125.039 142.134H195.737C196.007 142.134 196.267 142.246 196.459 142.447C196.65 142.647 196.758 142.918 196.758 143.202C196.758 143.485 196.65 143.756 196.459 143.957C196.267 144.157 196.007 144.269 195.737 144.269Z" fill="#E6E6E6"/>
<path d="M307.585 118.424C307.585 119.425 307.554 120.427 307.487 121.42C307.416 122.607 307.294 123.785 307.128 124.956C306.572 128.896 305.508 132.74 303.967 136.383C303.888 136.565 303.809 136.746 303.73 136.927L303.612 137.199C303.573 137.29 303.529 137.38 303.49 137.467C303.435 137.587 303.384 137.702 303.328 137.817C303.261 137.962 303.194 138.106 303.123 138.25C303.116 138.267 303.108 138.287 303.096 138.308C303.037 138.431 302.982 138.551 302.919 138.674C302.907 138.701 302.894 138.728 302.879 138.753C302.812 138.893 302.741 139.037 302.67 139.177C302.591 139.326 302.516 139.478 302.438 139.626C302.248 139.993 302.051 140.356 301.85 140.719C301.791 140.826 301.732 140.933 301.669 141.04C301.614 141.139 301.559 141.238 301.5 141.337C301.46 141.403 301.421 141.473 301.381 141.539C301.318 141.65 301.255 141.757 301.188 141.868C301.042 142.111 300.893 142.355 300.747 142.598H300.743C300.676 142.709 300.605 142.82 300.534 142.927V142.932C300.325 143.261 300.108 143.591 299.891 143.916C299.891 143.916 299.89 143.917 299.89 143.917C299.889 143.917 299.889 143.917 299.889 143.918C299.888 143.918 299.888 143.918 299.888 143.919C299.888 143.919 299.887 143.92 299.887 143.921C299.714 144.184 299.533 144.44 299.355 144.695V144.699C299.237 144.86 299.123 145.025 299.005 145.186C298.91 145.318 298.811 145.454 298.713 145.585C298.693 145.614 298.67 145.639 298.65 145.668V145.672C298.622 145.709 298.595 145.742 298.567 145.779C298.149 146.34 297.718 146.888 297.274 147.423L297.203 147.51C297.18 147.539 297.152 147.568 297.128 147.601C297.089 147.646 297.054 147.691 297.014 147.737C296.979 147.782 296.939 147.827 296.9 147.873C294.585 150.599 291.96 153.02 289.084 155.08C288.702 155.356 288.311 155.624 287.921 155.884C287.823 155.95 287.724 156.016 287.626 156.078C287.598 156.098 287.566 156.119 287.539 156.139C287.484 156.172 287.432 156.205 287.377 156.243C287.326 156.275 287.275 156.308 287.22 156.341C287.011 156.477 286.798 156.609 286.585 156.741C286.534 156.774 286.479 156.807 286.423 156.84C286.372 156.869 286.317 156.902 286.262 156.935C286.262 156.939 286.262 156.939 286.258 156.939H286.254V156.943H286.25C285.986 157.104 285.718 157.26 285.446 157.413C285.3 157.495 285.15 157.582 285.001 157.66C284.662 157.854 284.319 158.039 283.976 158.216C283.854 158.278 283.727 158.34 283.605 158.406C283.503 158.456 283.4 158.509 283.298 158.559C283.266 158.575 283.239 158.587 283.211 158.604C283.124 158.645 283.042 158.686 282.955 158.727C282.86 158.773 282.766 158.818 282.675 158.863C282.569 158.913 282.466 158.962 282.36 159.008C281.966 159.193 281.568 159.37 281.169 159.539C279.743 160.151 278.285 160.679 276.802 161.122C276.735 161.142 276.664 161.163 276.593 161.184C275.959 161.369 275.32 161.538 274.678 161.691C273.554 161.963 272.421 162.185 271.276 162.358H271.268C271.13 162.379 270.996 162.399 270.858 162.42C270.847 162.42 270.835 162.424 270.819 162.424C270.819 162.428 270.819 162.428 270.815 162.424C270.665 162.445 270.512 162.465 270.362 162.486C270.352 162.489 270.341 162.49 270.33 162.49C270.188 162.511 270.043 162.527 269.901 162.544C269.747 162.56 269.593 162.577 269.44 162.593C269.321 162.605 269.203 162.618 269.085 162.63C269.075 162.634 269.064 162.635 269.053 162.634C268.947 162.642 268.84 162.655 268.734 162.663H268.718C268.628 162.671 268.533 162.68 268.442 162.688C267.343 162.779 266.239 162.82 265.12 162.82C263.91 162.82 262.708 162.77 261.521 162.663H261.509C261.253 162.638 261.001 162.614 260.749 162.589C260.682 162.581 260.619 162.577 260.552 162.568C260.54 162.568 260.524 162.564 260.512 162.564C260.492 162.56 260.473 162.56 260.449 162.556C260.438 162.556 260.428 162.555 260.418 162.552C260.331 162.544 260.244 162.531 260.153 162.523L259.858 162.486C259.759 162.474 259.661 162.457 259.562 162.445C259.539 162.441 259.519 162.441 259.495 162.436C259.424 162.428 259.353 162.416 259.282 162.403C259.247 162.399 259.211 162.395 259.18 162.391C259.109 162.379 259.042 162.371 258.971 162.358H258.967C256.804 162.033 254.669 161.53 252.582 160.854C252.472 160.817 252.361 160.784 252.251 160.747C252.247 160.747 252.243 160.743 252.239 160.743C252.207 160.73 252.172 160.722 252.14 160.71C251.845 160.611 251.553 160.508 251.261 160.401C250.859 160.261 250.461 160.108 250.063 159.951C249.957 159.906 249.85 159.865 249.744 159.82C249.527 159.733 249.314 159.642 249.102 159.552C248.739 159.399 248.376 159.239 248.018 159.074C247.683 158.917 247.352 158.76 247.02 158.596C247.013 158.592 247.001 158.592 246.993 158.583C246.918 158.546 246.843 158.509 246.772 158.472H246.768C244.953 157.561 243.203 156.516 241.53 155.344C240.994 154.969 240.466 154.582 239.946 154.182C239.528 153.856 239.118 153.527 238.708 153.189C236.686 151.507 234.814 149.637 233.115 147.601V147.597C232.993 147.456 232.878 147.312 232.76 147.168C232.74 147.147 232.725 147.127 232.709 147.11C232.634 147.016 232.563 146.925 232.488 146.834V146.83C232.39 146.711 232.291 146.587 232.197 146.463C232.173 146.434 232.153 146.41 232.134 146.385V146.381C232.055 146.282 231.98 146.183 231.901 146.08C231.862 146.031 231.826 145.981 231.787 145.932V145.928C231.554 145.623 231.329 145.318 231.105 145.004C231.046 144.922 230.987 144.835 230.923 144.749C230.64 144.349 230.364 143.941 230.096 143.533V143.529C229.993 143.377 229.895 143.22 229.792 143.068C229.694 142.911 229.595 142.754 229.497 142.598C229.398 142.433 229.296 142.272 229.197 142.107L229.185 142.083C229.087 141.926 228.988 141.761 228.894 141.6C228.819 141.469 228.744 141.341 228.669 141.213C228.622 141.127 228.57 141.04 228.523 140.949C228.505 140.921 228.488 140.893 228.472 140.863C228.362 140.661 228.251 140.459 228.141 140.257C228.011 140.022 227.885 139.783 227.758 139.544C227.711 139.445 227.66 139.346 227.609 139.247C227.589 139.214 227.573 139.181 227.557 139.148C227.498 139.033 227.439 138.914 227.384 138.794C227.325 138.679 227.266 138.559 227.207 138.44C227.151 138.324 227.092 138.205 227.037 138.085C226.994 137.995 226.954 137.904 226.911 137.813C226.908 137.806 226.904 137.799 226.899 137.793C226.88 137.747 226.86 137.706 226.844 137.665C226.839 137.659 226.835 137.652 226.832 137.644C226.789 137.554 226.749 137.459 226.706 137.368C226.651 137.249 226.6 137.125 226.544 137.006C226.509 136.923 226.47 136.837 226.434 136.75C226.383 136.63 226.328 136.511 226.28 136.387C226.225 136.264 226.174 136.14 226.123 136.012C226.108 135.982 226.095 135.95 226.083 135.918C226.056 135.86 226.036 135.802 226.012 135.744C225.949 135.592 225.886 135.435 225.827 135.283C225.756 135.11 225.689 134.933 225.626 134.76C225.563 134.599 225.504 134.434 225.445 134.269L225.421 134.211C224.503 131.682 223.806 129.071 223.34 126.41V126.406C223.077 124.887 222.889 123.355 222.776 121.815C222.773 121.729 222.765 121.646 222.761 121.564C222.69 120.521 222.658 119.475 222.658 118.424C222.658 117.958 222.666 117.496 222.678 117.035C222.953 107.382 226.245 98.089 232.051 90.5778C232.177 90.413 232.303 90.2481 232.433 90.0833C232.563 89.9184 232.697 89.7577 232.827 89.597C237.148 84.3065 242.597 80.1514 248.736 77.4669C254.874 74.7823 261.53 73.6434 268.167 74.1418C274.803 74.6403 281.235 76.7622 286.944 80.3365C292.652 83.9108 297.477 88.8375 301.031 94.7195C301.224 95.0409 301.417 95.3665 301.602 95.6921C301.791 96.0217 301.973 96.3514 302.154 96.6852C305.725 103.321 307.595 110.809 307.585 118.424Z" fill="#F2F2F2"/>
<path d="M266.808 89.3845C259.825 91.2578 252.67 92.3376 245.465 92.6052C244.376 92.6672 243.284 92.6595 242.195 92.5819C239.803 92.3716 237.754 91.5855 235.472 91.1559C234.375 90.95 233.153 90.7994 232.049 90.5769C232.304 90.2458 232.564 89.9188 232.828 89.5959C235.21 89.8063 237.628 90.4949 240.038 90.8149C244.135 91.3596 248.726 90.7518 251.831 89.2527C253.338 88.5253 254.493 87.6174 255.994 86.8867C256.198 86.7771 256.419 86.7062 256.647 86.6775C257.08 86.6639 257.508 86.7799 257.88 87.0118C260.399 88.3415 264.057 89.4221 267.451 88.8276C267.705 89.0346 267.224 89.2704 266.808 89.3845Z" fill="white"/>
<path d="M281.834 94.0645C281.865 94.0586 281.896 94.0539 281.927 94.0483C281.797 93.9636 281.674 93.8666 281.561 93.7585L281.834 94.0645Z" fill="white"/>
<path d="M302.159 96.6871C300.741 96.8055 299.316 96.8937 297.883 96.9517C296.794 97.0132 295.702 97.0054 294.613 96.9284C292.221 96.717 290.172 95.932 287.89 95.5024C285.799 95.1094 283.258 94.92 281.93 94.0476C285.362 93.4265 288.917 94.6909 292.456 95.1614C295.319 95.5294 298.221 95.3796 301.035 94.7185C301.426 95.3629 301.801 96.0191 302.159 96.6871Z" fill="white"/>
<path d="M260.332 137.851C267.376 137.851 273.086 131.748 273.086 124.219C273.086 116.69 267.376 110.587 260.332 110.587C253.288 110.587 247.578 116.69 247.578 124.219C247.578 131.748 253.288 137.851 260.332 137.851Z" fill="#FFB6B6"/>
<path d="M285.002 157.66C284.663 157.854 284.32 158.039 283.977 158.217C283.855 158.278 283.729 158.34 283.606 158.406C283.504 158.456 283.401 158.509 283.299 158.559C283.267 158.575 283.24 158.588 283.212 158.604C283.126 158.645 283.043 158.686 282.956 158.728C282.861 158.773 282.767 158.818 282.676 158.864C282.57 158.913 282.467 158.963 282.361 159.008C281.967 159.193 281.569 159.371 281.171 159.54C279.744 160.151 278.286 160.679 276.803 161.122C276.736 161.143 276.665 161.163 276.595 161.184C275.96 161.369 275.321 161.538 274.679 161.691C273.556 161.963 272.422 162.185 271.277 162.358H271.27C271.132 162.379 270.998 162.4 270.86 162.42C270.848 162.42 270.836 162.424 270.82 162.424C270.82 162.428 270.82 162.428 270.816 162.424C270.667 162.445 270.513 162.465 270.363 162.486C270.353 162.489 270.342 162.491 270.332 162.49C270.19 162.511 270.044 162.527 269.902 162.544C269.748 162.56 269.594 162.577 269.441 162.593C269.322 162.606 269.204 162.618 269.086 162.63C269.076 162.634 269.065 162.635 269.054 162.634C268.948 162.643 268.842 162.655 268.735 162.663H268.719C268.629 162.672 268.534 162.68 268.444 162.688C267.344 162.779 266.24 162.82 265.121 162.82C263.911 162.82 262.709 162.77 261.522 162.663H261.51C261.254 162.639 261.002 162.614 260.75 162.589C260.683 162.581 260.62 162.577 260.553 162.568C260.541 162.568 260.525 162.564 260.513 162.564C260.494 162.56 260.474 162.56 260.45 162.556C260.44 162.557 260.429 162.555 260.419 162.552C260.332 162.544 260.245 162.531 260.155 162.523L259.859 162.486C259.76 162.474 259.662 162.457 259.563 162.445C259.54 162.441 259.52 162.441 259.496 162.437C259.425 162.428 259.354 162.416 259.284 162.404C259.248 162.4 259.213 162.395 259.181 162.391C259.11 162.379 259.043 162.371 258.972 162.358H258.968C256.805 162.033 254.67 161.53 252.583 160.854C252.473 160.817 252.362 160.784 252.252 160.747C252.761 158.265 253.809 155.939 255.314 153.949C256.82 151.958 258.743 150.356 260.935 149.266C260.393 148.726 260.018 148.028 259.859 147.263C259.757 146.77 259.749 146.26 259.835 145.764C259.922 145.267 260.101 144.794 260.364 144.37C260.875 143.549 261.677 142.974 262.594 142.771L268.436 141.493C269.376 141.302 270.351 141.506 271.148 142.062C271.945 142.617 272.5 143.479 272.692 144.461C272.752 144.761 272.778 145.068 272.771 145.375C278.396 149.29 282.444 153.35 285.002 157.66Z" fill="#FFC003"/>
<path d="M294.461 118.306C292.293 115.663 291.263 112.156 289.53 109.154C287.797 106.153 284.781 103.466 281.595 104.165C279.398 104.646 277.701 106.673 276.842 108.932C275.982 111.191 275.821 113.682 275.671 116.123C275.724 111.107 272.563 106.245 268.21 104.644C263.856 103.044 258.646 104.829 255.91 108.859C254.716 107.702 253.158 107.043 251.531 107.007C249.903 106.972 248.32 107.562 247.081 108.665C244.634 110.952 244.092 115.304 245.892 118.221C247.691 121.137 251.589 122.224 254.449 120.606L255.46 121.579C254.891 123.66 255.994 126.118 257.849 126.902C259.354 127.537 261.478 127.431 262.041 129.082C262.434 130.235 261.699 131.467 260.917 132.353C260.135 133.239 259.206 134.154 259.112 135.381C258.97 137.231 260.799 138.528 262.462 138.918C266.471 139.859 270.919 137.918 273.23 134.219C273.274 134.148 273.323 134.076 273.375 134.005C274.671 132.272 275.616 130.28 276.152 128.152C276.687 126.024 276.802 123.804 276.489 121.628C276.359 120.773 276.49 120.137 277.054 119.935C279.491 119.059 286.318 120.896 288.384 122.556C290.45 124.216 292.105 126.413 294.095 128.181C296.086 129.948 298.622 131.311 301.149 130.83C303.173 130.444 304.895 128.908 306.053 127.055C307.211 125.202 307.877 123.042 308.475 120.895C303.999 123.598 297.874 122.467 294.461 118.306Z" fill="#2F2E41"/>
<path d="M32.6426 90.8128C32.6426 91.8143 32.6742 92.8157 32.7412 93.8088C32.8121 94.9957 32.9343 96.1743 33.0998 97.3447C33.6562 101.285 34.7195 105.129 36.2609 108.772C36.3397 108.954 36.4185 109.135 36.4974 109.316L36.6156 109.588C36.655 109.679 36.6984 109.77 36.7378 109.856C36.793 109.976 36.8442 110.091 36.8994 110.206C36.9664 110.351 37.0334 110.495 37.1044 110.639C37.1122 110.656 37.1201 110.676 37.132 110.697C37.1911 110.821 37.2463 110.94 37.3093 111.064C37.3209 111.091 37.3341 111.117 37.3487 111.142C37.4157 111.282 37.4867 111.426 37.5576 111.566C37.6365 111.715 37.7114 111.867 37.7902 112.016C37.9794 112.382 38.1764 112.745 38.3775 113.108C38.4366 113.215 38.4957 113.322 38.5588 113.429C38.6139 113.528 38.6691 113.627 38.7283 113.726C38.7677 113.792 38.8071 113.862 38.8465 113.928C38.9096 114.039 38.9726 114.146 39.0396 114.257C39.1855 114.501 39.3352 114.744 39.4811 114.987H39.485C39.552 115.098 39.623 115.209 39.6939 115.317V115.321C39.9028 115.65 40.1196 115.98 40.3364 116.306C40.3369 116.306 40.3374 116.306 40.3379 116.306C40.3384 116.306 40.3388 116.306 40.3392 116.307C40.3396 116.307 40.3399 116.308 40.34 116.308C40.3402 116.309 40.3403 116.309 40.3403 116.31C40.5137 116.573 40.695 116.829 40.8724 117.084V117.089C40.9907 117.249 41.105 117.414 41.2232 117.575C41.3178 117.707 41.4163 117.843 41.5149 117.975C41.5346 118.003 41.5582 118.028 41.5779 118.057V118.061C41.6055 118.098 41.6331 118.131 41.6607 118.168C42.0785 118.729 42.5094 119.277 42.9535 119.813L43.0245 119.899C43.0481 119.928 43.0757 119.957 43.0994 119.99C43.1388 120.035 43.1742 120.08 43.2136 120.126C43.2491 120.171 43.2885 120.216 43.328 120.262C45.6428 122.988 48.2676 125.409 51.1439 127.47C51.5262 127.746 51.9164 128.013 52.3066 128.273C52.4052 128.339 52.5037 128.405 52.6022 128.467C52.6298 128.487 52.6614 128.508 52.689 128.529C52.7441 128.562 52.7954 128.595 52.8506 128.632C52.9018 128.665 52.953 128.698 53.0082 128.731C53.2171 128.867 53.43 128.998 53.6428 129.13C53.694 129.163 53.7492 129.196 53.8044 129.229C53.8556 129.258 53.9108 129.291 53.966 129.324C53.966 129.328 53.966 129.328 53.9699 129.328H53.9739V129.332H53.9778C54.2419 129.493 54.5099 129.65 54.7819 129.802C54.9277 129.884 55.0775 129.971 55.2273 130.049C55.5662 130.243 55.9091 130.428 56.2521 130.606C56.3742 130.667 56.5004 130.729 56.6226 130.795C56.725 130.845 56.8275 130.898 56.93 130.948C56.9615 130.964 56.9891 130.977 57.0167 130.993C57.1034 131.034 57.1862 131.075 57.2729 131.117C57.3675 131.162 57.4621 131.207 57.5527 131.253C57.6592 131.302 57.7616 131.352 57.8681 131.397C58.2622 131.582 58.6603 131.76 59.0584 131.928C60.485 132.54 61.943 133.068 63.4255 133.511C63.4925 133.532 63.5635 133.552 63.6344 133.573C64.269 133.758 64.9076 133.927 65.55 134.08C66.6733 134.352 67.8072 134.574 68.9515 134.747H68.9594C69.0973 134.768 69.2314 134.789 69.3693 134.809C69.3811 134.809 69.3929 134.813 69.4087 134.813C69.4087 134.817 69.4087 134.817 69.4127 134.813C69.5624 134.834 69.7162 134.854 69.8659 134.875C69.8762 134.878 69.8868 134.88 69.8975 134.879C70.0394 134.9 70.1852 134.916 70.3271 134.933C70.4808 134.949 70.6345 134.966 70.7882 134.982C70.9065 134.995 71.0247 135.007 71.143 135.019C71.1531 135.023 71.1638 135.024 71.1745 135.023C71.2809 135.032 71.3873 135.044 71.4938 135.052H71.5095C71.6002 135.06 71.6948 135.069 71.7854 135.077C72.8851 135.168 73.9887 135.209 75.1081 135.209C76.3181 135.209 77.5203 135.159 78.7067 135.052H78.7185C78.9747 135.028 79.2269 135.003 79.4792 134.978C79.5462 134.97 79.6093 134.966 79.6763 134.957C79.6881 134.957 79.7039 134.953 79.7157 134.953C79.7354 134.949 79.7551 134.949 79.7787 134.945C79.7894 134.946 79.8 134.944 79.8103 134.941C79.897 134.933 79.9837 134.92 80.0743 134.912L80.37 134.875C80.4685 134.863 80.567 134.846 80.6656 134.834C80.6892 134.83 80.7089 134.83 80.7326 134.826C80.8035 134.817 80.8745 134.805 80.9454 134.793C80.9809 134.789 81.0164 134.784 81.0479 134.78C81.1188 134.768 81.1858 134.76 81.2568 134.747H81.2607C83.4236 134.422 85.5586 133.919 87.6459 133.243C87.7563 133.206 87.8666 133.173 87.977 133.136C87.981 133.136 87.9849 133.132 87.9888 133.132C88.0204 133.119 88.0558 133.111 88.0874 133.099C88.383 133 88.6746 132.897 88.9663 132.79C89.3683 132.65 89.7664 132.497 90.1645 132.341C90.2709 132.295 90.3774 132.254 90.4838 132.209C90.7006 132.122 90.9134 132.032 91.1262 131.941C91.4889 131.788 91.8515 131.628 92.2102 131.463C92.5452 131.306 92.8763 131.15 93.2073 130.985C93.2152 130.981 93.2271 130.981 93.2349 130.972C93.3098 130.935 93.3847 130.898 93.4557 130.861H93.4596C95.2747 129.95 97.0253 128.905 98.6978 127.733C99.2339 127.358 99.762 126.971 100.282 126.571C100.7 126.246 101.11 125.916 101.52 125.578C103.542 123.896 105.414 122.026 107.113 119.99V119.986C107.235 119.846 107.349 119.701 107.468 119.557C107.487 119.537 107.503 119.516 107.519 119.499C107.594 119.405 107.665 119.314 107.74 119.223V119.219C107.838 119.1 107.937 118.976 108.031 118.852C108.055 118.824 108.075 118.799 108.094 118.774V118.77C108.173 118.671 108.248 118.572 108.327 118.469C108.366 118.42 108.402 118.37 108.441 118.321V118.317C108.674 118.012 108.898 117.707 109.123 117.394C109.182 117.311 109.241 117.225 109.304 117.138C109.588 116.738 109.864 116.33 110.132 115.922V115.918C110.235 115.766 110.333 115.609 110.436 115.457C110.534 115.3 110.633 115.144 110.731 114.987C110.83 114.822 110.932 114.661 111.031 114.497L111.043 114.472C111.141 114.315 111.24 114.15 111.334 113.99C111.409 113.858 111.484 113.73 111.559 113.602C111.606 113.516 111.657 113.429 111.705 113.339C111.723 113.311 111.74 113.282 111.756 113.252C111.866 113.05 111.977 112.848 112.087 112.646C112.217 112.411 112.343 112.172 112.469 111.933C112.517 111.834 112.568 111.735 112.619 111.637C112.639 111.604 112.655 111.571 112.67 111.538C112.729 111.422 112.789 111.303 112.844 111.183C112.903 111.068 112.962 110.948 113.021 110.829C113.076 110.713 113.135 110.594 113.191 110.474C113.234 110.384 113.273 110.293 113.317 110.202C113.32 110.195 113.324 110.188 113.329 110.182C113.348 110.136 113.368 110.095 113.384 110.054C113.389 110.048 113.393 110.041 113.396 110.033C113.439 109.943 113.478 109.848 113.522 109.757C113.577 109.638 113.628 109.514 113.683 109.395C113.719 109.312 113.758 109.226 113.794 109.139C113.845 109.02 113.9 108.9 113.947 108.777C114.003 108.653 114.054 108.529 114.105 108.401C114.12 108.371 114.133 108.339 114.144 108.307C114.172 108.249 114.192 108.191 114.215 108.134C114.278 107.981 114.342 107.825 114.401 107.672C114.472 107.499 114.539 107.322 114.602 107.149C114.665 106.988 114.724 106.823 114.783 106.658L114.807 106.601C115.725 104.072 116.422 101.46 116.888 98.7995V98.7953C117.151 97.2761 117.339 95.7438 117.451 94.2045C117.455 94.1179 117.463 94.0355 117.467 93.9531C117.538 92.9105 117.57 91.8637 117.57 90.8129C117.57 90.3472 117.562 89.8856 117.55 89.4241C117.275 79.7711 113.983 70.4781 108.177 62.967C108.051 62.8021 107.925 62.6373 107.795 62.4724C107.665 62.3076 107.531 62.1469 107.401 61.9862C103.08 56.6956 97.6306 52.5406 91.4921 49.856C85.3537 47.1715 78.6979 46.0325 72.0612 46.531C65.4245 47.0295 58.9927 49.1514 53.2843 52.7257C47.5758 56.3 42.7505 61.2267 39.1973 67.1086C39.0042 67.4301 38.811 67.7556 38.6258 68.0812C38.4366 68.4109 38.2553 68.7406 38.074 69.0744C34.5033 75.7106 32.6324 83.1986 32.6426 90.8128Z" fill="#F2F2F2"/>
<path d="M73.425 61.7733C80.4076 63.6466 87.5632 64.7265 94.7674 64.994C95.8568 65.0561 96.9488 65.0483 98.0373 64.9708C100.429 64.7604 102.478 63.9743 104.76 63.5448C105.857 63.3388 107.079 63.1883 108.184 62.9657C107.929 62.6347 107.669 62.3077 107.404 61.9848C105.023 62.1951 102.604 62.8838 100.194 63.2038C96.0974 63.7485 91.507 63.1406 88.4012 61.6416C86.8944 60.9142 85.7402 60.0063 84.2386 59.2756C84.0344 59.1659 83.8132 59.0951 83.5853 59.0663C83.1524 59.0527 82.7247 59.1687 82.3527 59.4007C79.8336 60.7304 76.1761 61.8109 72.7812 61.2164C72.5281 61.4234 73.0089 61.6593 73.425 61.7733Z" fill="white"/>
<path d="M58.4035 66.4534C58.3725 66.4474 58.3415 66.4428 58.3105 66.4372C58.4407 66.3524 58.5632 66.2554 58.6767 66.1474L58.4035 66.4534Z" fill="white"/>
<path d="M38.0762 69.0762C39.4941 69.1946 40.9193 69.2828 42.3521 69.3408C43.4415 69.4023 44.5335 69.3945 45.622 69.3175C48.0141 69.1061 50.0631 68.3211 52.345 67.8915C54.4364 67.4985 56.9778 67.3091 58.3057 66.4367C54.8737 65.8156 51.3179 67.08 47.779 67.5505C44.9164 67.9185 42.0147 67.7687 39.2007 67.1076C38.8089 67.752 38.4341 68.4082 38.0762 69.0762Z" fill="white"/>
<path d="M55.2344 130.049C55.5733 130.243 55.9163 130.428 56.2592 130.605C56.3813 130.667 56.5075 130.729 56.6297 130.795C56.7321 130.844 56.8346 130.898 56.9371 130.947C56.9686 130.964 56.9962 130.976 57.0238 130.993C57.1105 131.034 57.1933 131.075 57.28 131.116C57.3746 131.162 57.4692 131.207 57.5599 131.252C57.6663 131.302 57.7687 131.351 57.8752 131.396C58.2693 131.582 58.6674 131.759 59.0655 131.928C60.4921 132.54 61.9501 133.068 63.4327 133.511C63.4997 133.531 63.5706 133.552 63.6415 133.572C64.2761 133.758 64.9147 133.927 65.5571 134.079C66.6804 134.351 67.8143 134.574 68.9586 134.747H68.9665C69.1045 134.768 69.2385 134.788 69.3764 134.809C69.3882 134.809 69.4001 134.813 69.4158 134.813C69.4158 134.817 69.4158 134.817 69.4198 134.813C69.5695 134.833 69.7233 134.854 69.873 134.875C69.8833 134.878 69.8939 134.879 69.9046 134.879C70.0465 134.899 70.1923 134.916 70.3342 134.932C70.4879 134.949 70.6416 134.965 70.7954 134.982C70.9136 134.994 71.0318 135.007 71.1501 135.019C71.1602 135.023 71.1709 135.024 71.1816 135.023C71.288 135.031 71.3944 135.044 71.5009 135.052H71.5166C71.6073 135.06 71.7019 135.068 71.7925 135.077C72.8922 135.167 73.9958 135.208 75.1152 135.208C76.3252 135.208 77.5274 135.159 78.7138 135.052H78.7256C78.9818 135.027 79.234 135.002 79.4863 134.978C79.5533 134.969 79.6164 134.965 79.6834 134.957C79.6952 134.957 79.711 134.953 79.7228 134.953C79.7425 134.949 79.7622 134.949 79.7859 134.945C79.7965 134.945 79.8072 134.944 79.8174 134.941C79.9041 134.932 79.9908 134.92 80.0815 134.912L80.3771 134.875C80.4756 134.862 80.5742 134.846 80.6727 134.833C80.6963 134.829 80.716 134.829 80.7397 134.825C80.8106 134.817 80.8816 134.805 80.9525 134.792C80.988 134.788 81.0235 134.784 81.055 134.78C81.126 134.768 81.193 134.759 81.2639 134.747H81.2678C83.4307 134.421 85.5657 133.918 87.653 133.243C87.7634 133.206 87.8738 133.173 87.9841 133.136C87.4752 130.654 86.4275 128.328 84.9219 126.337C83.4163 124.347 81.4932 122.744 79.301 121.654C79.8433 121.114 80.2181 120.417 80.3771 119.652C80.4794 119.158 80.4875 118.649 80.4009 118.152C80.3143 117.656 80.1348 117.182 79.8726 116.759C79.3611 115.937 78.5587 115.362 77.6417 115.16L71.8004 113.882C70.8601 113.69 69.8854 113.895 69.0883 114.45C68.2912 115.006 67.7361 115.868 67.5436 116.849C67.484 117.15 67.4576 117.457 67.4648 117.764C61.8403 121.679 57.7924 125.738 55.2344 130.049Z" fill="#FFC003"/>
<path d="M78.3392 109.76C86.1917 109.76 92.5574 103.104 92.5574 94.8942C92.5574 86.684 86.1917 80.0283 78.3392 80.0283C70.4868 80.0283 64.1211 86.684 64.1211 94.8942C64.1211 103.104 70.4868 109.76 78.3392 109.76Z" fill="#9E616A"/>
<path d="M76.316 108.965C72.7565 109.971 68.8323 108.634 66.0544 106.099C63.2766 103.564 61.5389 99.9725 60.5377 96.2623C59.8044 93.5451 59.4567 90.5289 60.6139 87.9779C61.771 85.4269 64.8853 83.7059 67.288 84.9944C65.8058 83.1889 66.5463 80.2026 68.2774 78.658C70.0085 77.1134 72.3855 76.6706 74.6494 76.4285C77.935 76.0772 81.3289 76.0379 84.4553 77.1508C87.5818 78.2637 90.4226 80.6969 91.401 83.9951C92.4004 84.4816 93.5259 84.6078 94.6012 84.354C95.6765 84.1001 96.641 83.4805 97.3435 82.5923C97.5246 83.6125 97.3791 84.6666 96.9296 85.5916C96.48 86.5166 95.7514 87.261 94.8565 87.7094L99.6468 86.0856C100.471 87.9089 99.0271 90.1655 97.1811 90.7493C95.3351 91.3332 93.3424 90.695 91.5906 89.8515C89.8388 89.0079 88.1412 87.9415 86.2384 87.6125C84.3356 87.2835 82.1005 87.9228 81.2203 89.7171C80.7593 90.6568 80.7353 91.7575 80.4676 92.7759C80.2 93.7943 79.522 94.8502 78.515 94.9336C77.8788 94.9862 77.2559 94.6319 76.6214 94.7043C76.2321 94.7845 75.8735 94.9816 75.5897 95.2716C75.3059 95.5615 75.1091 95.9317 75.0234 96.3369C74.8654 97.1498 74.8635 97.9875 75.0177 98.8012L76.2346 108.526L76.316 108.965Z" fill="#2F2E41"/>
</svg>
