
<svg width="80" height="18" viewBox="0 0 80 18" fill="none" xmlns="http://www.w3.org/2000/svg">
<path d="M4.016 14.9703H9.536V17.6343H0.656V0.882277H4.016V14.9703ZM15.0316 0.882277V17.6343H11.6716V0.882277H15.0316ZM28.6953 0.882277V3.59428H21.7113V7.89028H27.0633V10.5543H21.7113V17.6343H18.3513V0.882277H28.6953ZM34.4379 3.59428V7.79428H40.0779V10.4583H34.4379V14.8983H40.7979V17.6343H31.0779V0.858276H40.7979V3.59428H34.4379ZM49.8178 16.3143C52.7618 14.1063 55.0338 12.1303 56.6338 10.3863C58.2498 8.62628 59.0578 6.90628 59.0578 5.22628C59.0578 4.12228 58.7778 3.24228 58.2178 2.58628C57.6738 1.91428 56.7778 1.57828 55.5298 1.57828C54.3138 1.57828 53.3698 1.96228 52.6978 2.73028C52.0418 3.48228 51.6738 4.49028 51.5938 5.75428H49.9618C50.0578 3.97828 50.6018 2.60228 51.5938 1.62628C52.6018 0.634276 53.9138 0.138277 55.5298 0.138277C57.0818 0.138277 58.3378 0.578277 59.2978 1.45828C60.2578 2.32228 60.7378 3.55428 60.7378 5.15428C60.7378 7.09028 59.9298 8.97028 58.3138 10.7943C56.7138 12.6023 54.7378 14.3703 52.3858 16.0983H61.2657V17.5143H49.8178V16.3143ZM64.5361 17.7543C64.1841 17.7543 63.8881 17.6343 63.6481 17.3943C63.4241 17.1543 63.3121 16.8583 63.3121 16.5063C63.3121 16.1543 63.4241 15.8663 63.6481 15.6423C63.8881 15.4023 64.1841 15.2823 64.5361 15.2823C64.8721 15.2823 65.1521 15.4023 65.3761 15.6423C65.6161 15.8663 65.7361 16.1543 65.7361 16.5063C65.7361 16.8583 65.6161 17.1543 65.3761 17.3943C65.1521 17.6343 64.8721 17.7543 64.5361 17.7543ZM68.2475 8.87428C68.2475 6.12228 68.6715 3.98628 69.5195 2.46628C70.3675 0.946276 71.8875 0.186276 74.0795 0.186276C76.2715 0.186276 77.7915 0.946276 78.6395 2.46628C79.4875 3.98628 79.9115 6.12228 79.9115 8.87428C79.9115 11.6743 79.4875 13.8423 78.6395 15.3783C77.7915 16.9143 76.2715 17.6823 74.0795 17.6823C71.8715 17.6823 70.3435 16.9143 69.4955 15.3783C68.6635 13.8423 68.2475 11.6743 68.2475 8.87428ZM78.2555 8.87428C78.2555 7.38628 78.1515 6.13028 77.9435 5.10628C77.7355 4.08228 77.3275 3.25828 76.7195 2.63428C76.1115 2.01028 75.2315 1.69828 74.0795 1.69828C72.9275 1.69828 72.0475 2.01028 71.4395 2.63428C70.8315 3.25828 70.4235 4.08228 70.2155 5.10628C70.0075 6.13028 69.9035 7.38628 69.9035 8.87428C69.9035 10.4103 70.0075 11.6983 70.2155 12.7383C70.4235 13.7623 70.8315 14.5863 71.4395 15.2103C72.0475 15.8343 72.9275 16.1463 74.0795 16.1463C75.2315 16.1463 76.1115 15.8343 76.7195 15.2103C77.3275 14.5863 77.7355 13.7623 77.9435 12.7383C78.1515 11.6983 78.2555 10.4103 78.2555 8.87428Z" fill="black"/>
</svg>
